<?xml version="1.0" standalone="no"?>
<!DOCTYPE svg PUBLIC "-//W3C//DTD SVG 1.1//EN" "http://www.w3.org/Graphics/SVG/1.1/DTD/svg11.dtd" >
<svg xmlns="http://www.w3.org/2000/svg">
<metadata>Generated by IcoMoon</metadata>
<defs>
<font id="icomoon" horiz-adv-x="1024">
<font-face units-per-em="1024" ascent="960" descent="-64" />
<missing-glyph horiz-adv-x="1024" />
<glyph unicode="&#x20;" horiz-adv-x="512" d="" />
<glyph unicode="&#xe900;" glyph-name="admin_icon" d="M372.622 500.622c-15.388 0-27.022-11.634-27.022-27.022v-199.111c0-15.388 11.634-27.022 27.022-27.022h250.311c14.655 0 27.022 10.883 27.022 29.867v196.267c0 15.388-11.634 27.022-27.022 27.022h-250.311zM308.622 473.6c0 35.812 28.188 64 64 64h250.311c35.812 0 64-28.188 64-64v-196.267c0-37.905-27.455-66.844-64-66.844h-250.311c-35.812 0-64 28.188-64 64v199.111zM497.778 671.289c-49.522 0-89.6-40.078-89.6-89.6v-59.733h-36.978v59.733c0 69.945 56.636 126.577 126.578 126.577 69.945 0 126.578-56.633 126.578-126.577h-36.978c0 49.522-40.075 89.6-89.6 89.6zM436.622 402.489c0 35.026 27.423 64 61.156 64s61.156-28.974 61.156-64c0-8.69-2.173-22.815-11.378-33.653v-34.614c0-27.278-22.5-49.778-49.778-49.778s-49.778 22.5-49.778 49.778v32.865c-3.2 4.13-5.774 8.582-7.657 13.477-2.819 7.324-3.721 14.692-3.721 21.925zM497.778 429.511c-11.779 0-24.178-10.852-24.178-27.022 0-4.144 0.518-6.733 1.257-8.653 0.705-1.835 1.963-3.977 4.705-6.719l5.416-5.416v-47.479c0-6.855 5.945-12.8 12.8-12.8s12.8 5.945 12.8 12.8v52.562l8.232 5.487c0.236 0.159 1.067 0.848 1.889 2.987 0.831 2.159 1.257 4.833 1.257 7.231 0 16.171-12.399 27.022-24.178 27.022z" />
<glyph unicode="&#xe901;" glyph-name="Arrow" d="M338.573 448l189.114-189.112-31.379-31.379-220.489 220.491 220.489 220.49 31.379-31.377-189.114-189.113zM509.239 448l189.116-189.112-31.379-31.379-220.488 220.491 220.488 220.49 31.379-31.377-189.116-189.113zM34.133 448c0 263.919 213.948 477.867 477.867 477.867s477.867-213.948 477.867-477.867c0-263.919-213.948-477.867-477.867-477.867s-477.867 213.948-477.867 477.867zM512 960c-282.77 0-512-229.23-512-512s229.23-512 512-512c282.771 0 512 229.229 512 512s-229.229 512-512 512z" />
<glyph unicode="&#xe902;" glyph-name="attach_icon" d="M577.764 624.276l-178.347-150.036c-10.391-10.812-11.756-25.819-3.57-37.749l42.086-50.503c5.794-6.719 12.211-9.702 17.892-10.251 5.604-0.543 12.080 1.118 18.54 6.656l0.196 0.168 153.492 127.909c6.721 5.791 9.705 12.208 10.254 17.889 0.54 5.606-1.121 12.080-6.659 18.543-5.811 6.781-12.26 9.788-17.966 10.34-5.604 0.543-12.080-1.118-18.54-6.656l-0.168-0.142-139.378-116.622-23.731 28.359 139.301 116.557c13.431 11.477 29.676 16.899 46.080 15.312 16.338-1.582 31.223-9.953 42.479-23.083 11.529-13.449 16.978-29.73 15.386-46.168-1.582-16.341-9.95-31.226-23.080-42.479l-0.196-0.168-153.509-127.92c-13.429-11.469-29.668-16.887-46.066-15.3-16.338 1.582-31.223 9.953-42.479 23.083l-0.165 0.193-43.108 51.732-0.401 0.56c-19.735 27.628-15.477 63.26 7.66 86.397l0.563 0.563 180.161 151.558c50.532 40.425 121.179 33.393 164.477-13.235l0.393-0.424 26.098-31.895c40.425-50.534 33.391-121.179-13.238-164.477l-0.347-0.324-262.372-219.588c-50.532-40.425-121.179-33.394-164.477 13.235l-0.393 0.424-26.096 31.895c-40.351 50.441-33.419 120.917 12.975 164.235l5.456 5.456 26.149-26.146-5.931-5.931-0.253-0.233c-32.99-30.635-37.354-79.408-9.58-114.204l25.148-30.737c30.635-32.6 79.104-36.833 113.752-9.239l261.14 218.564c32.688 30.655 36.929 79.215 9.25 113.894l-25.148 30.737c-30.632 32.594-79.087 36.83-113.732 9.253z" />
<glyph unicode="&#xe903;" glyph-name="download_icon" d="M493.511 320v355.556h36.978v-355.556h-36.978zM384.404 435.718l27.637 24.565 99.959-112.452 99.959 112.452 27.637-24.565-127.596-143.548-127.596 143.548zM288.711 253.156v95.289h-36.978v-132.267h520.534v132.267h-36.978v-95.289h-446.578z" />
<glyph unicode="&#xe904;" glyph-name="Dropdown-list" d="M512 337.61l191.727 191.73 26.149-26.149-217.876-217.876-217.876 217.876 26.149 26.149 191.727-191.73z" />
<glyph unicode="&#xe905;" glyph-name="edit_icon" d="M617.637 614.585c7.222 7.219 18.927 7.219 26.149 0l76.43-76.43c7.219-7.222 7.219-18.927 0-26.149l-239.346-239.343c-7.222-7.222-18.927-7.222-26.149 0l-76.427 76.427c-7.222 7.222-7.222 18.927 0 26.149l239.343 239.346zM630.713 575.363l-213.2-213.197 50.284-50.284 213.197 213.2-50.281 50.281zM352.091 302.629l19.911 65.422 35.374-10.766-19.886-65.34-4.213-14.327 26.442 8.815 54.047 17.064 11.133-35.26-53.905-17.024-59.594-19.863c-6.531-2.179-13.73-0.546-18.682 4.235-4.955 4.779-6.844 11.915-4.901 18.52l14.273 48.523zM682.63 681.711l102.576-102.576-80.452-80.452-102.576 102.576 80.452 80.452zM682.63 629.416l-28.16-28.157 50.284-50.284 28.157 28.16-50.281 50.281zM681.518 551.549l-238.933-238.933-26.146 26.146 238.933 238.933 26.146-26.146zM390.363 244.841l-36.978 39.822 27.096 25.162 36.978-39.822-27.096-25.162z" />
<glyph unicode="&#xe906;" glyph-name="exit_icon" d="M662.551 285.665l-312.889 312.889 40.229 40.226 312.889-312.889-40.229-40.226zM349.662 325.891l312.889 312.889 40.226-40.226-312.889-312.889-40.226 40.226z" />
<glyph unicode="&#xe907;" glyph-name="fem_icon" d="M512 713.955c-84.045 0-152.178-68.133-152.178-152.177s68.133-152.178 152.178-152.178c84.045 0 152.178 68.133 152.178 152.178s-68.133 152.177-152.178 152.177zM322.844 561.778c0 104.468 84.688 189.155 189.156 189.155s189.156-84.687 189.156-189.155c0-104.468-84.688-189.156-189.156-189.156s-189.156 84.688-189.156 189.156zM493.511 192v199.111h36.978v-199.111h-36.978zM426.667 295.822h170.667v-36.978h-170.667v36.978z" />
<glyph unicode="&#xe908;" glyph-name="friend" d="M589.204 653.392c-12.462-11.423-21.737-30.205-21.737-60.325 0-32.862 4.873-65.823 16.893-89.865 11.477-22.955 28.607-36.713 55.64-36.713v-36.978c-44.078 0-72.459 24.641-88.715 57.153-15.71 31.425-20.796 70.997-20.796 106.402 0 38.147 12.058 67.721 33.729 87.584 21.376 19.594 49.786 27.615 78.626 27.615v-36.977c-22.357 0-40.88-6.201-53.641-17.897zM718.626 680.651c21.672-19.864 33.729-49.438 33.729-87.584 0-35.698-5.877-75.318-22.389-106.735-17.010-32.358-46.040-56.821-89.967-56.821v36.978c27.184 0 45.087 13.938 57.233 37.046 12.644 24.050 18.145 56.96 18.145 89.532 0 30.12-9.276 48.902-21.737 60.325-12.757 11.696-31.283 17.897-53.641 17.897v36.977c28.843 0 57.25-8.021 78.626-27.615zM574.842 436.093l16.538-33.075-0.028-0.011-0.026-0.014-0.026-0.011-56.809-28.407c-14.78-7.39-27.674-12.911-38.491-17.417-1.957-0.816-3.814-1.587-5.586-2.321-8.314-3.445-14.674-6.081-19.922-8.707-6.36-3.18-8.804-5.282-9.833-6.568-0.498-0.623-1.28-1.675-1.28-5.339v-72.769c6.881-2.375 17.334-5.535 31.744-8.738 30.578-6.795 79.002-13.781 148.878-13.781v-36.978c-72.348 0-123.477 7.236-156.9 14.663-16.711 3.712-28.982 7.472-37.254 10.391-4.136 1.459-7.27 2.711-9.458 3.638-1.092 0.464-1.948 0.845-2.574 1.135l-0.768 0.361-0.256 0.125-0.097 0.046-0.040 0.020c-0.009 0.006-0.034 0.017 8.235 16.555h-18.489v85.333c0 10.559 2.773 20.176 9.384 28.439 6.084 7.603 14.308 12.612 22.17 16.543 6.537 3.268 14.407 6.525 22.736 9.975 1.681 0.694 3.379 1.397 5.089 2.111 10.516 4.38 22.511 9.526 36.176 16.358l56.889 28.444zM440.889 248.889h-18.489v-11.426l10.22-5.111 8.269 16.538zM688.62 403.018l16.538 33.075 0.026-0.014 0.028-0.011 56.835-28.419c13.665-6.832 25.66-11.978 36.176-16.358 1.71-0.714 3.408-1.417 5.089-2.111 8.329-3.45 16.199-6.707 22.736-9.975 7.862-3.931 16.085-8.94 22.17-16.543 6.61-8.263 9.384-17.88 9.384-28.439v-85.322l-18.489-0.011c8.269-16.538 8.26-16.54 8.252-16.546l-0.060-0.028-0.35-0.171-0.768-0.361c-0.626-0.287-1.482-0.671-2.574-1.135-2.187-0.927-5.322-2.179-9.458-3.638-8.272-2.918-20.545-6.679-37.254-10.391-33.422-7.427-84.551-14.663-156.9-14.663v36.978c69.874 0 118.3 6.986 148.878 13.781 14.407 3.203 24.863 6.363 31.744 8.738v72.769c0 3.664-0.782 4.716-1.283 5.339-1.027 1.286-3.47 3.388-9.83 6.568-5.251 2.625-11.608 5.262-19.922 8.707-1.772 0.734-3.63 1.505-5.586 2.321-10.817 4.506-23.711 10.027-38.491 17.417l-56.889 28.444zM839.111 248.889l8.252-16.546 10.237 5.12v11.438l-18.489-0.011zM304.754 398.851v362.038h36.978v-362.038h-36.978zM142.223 598.357h362.038v-36.978h-362.038v36.978z" />
<glyph unicode="&#xe909;" glyph-name="ignore" d="M390.093 653.392c-12.462-11.423-21.737-30.205-21.737-60.325 0-32.862 4.873-65.823 16.893-89.865 11.477-22.955 28.607-36.713 55.64-36.713v-36.978c-44.078 0-72.459 24.641-88.715 57.153-15.71 31.425-20.796 70.997-20.796 106.402 0 38.147 12.058 67.721 33.729 87.584 21.376 19.594 49.786 27.615 78.626 27.615v-36.977c-22.357 0-40.88-6.201-53.641-17.897zM519.515 680.651c21.672-19.864 33.729-49.438 33.729-87.584 0-35.698-5.877-75.318-22.389-106.735-17.010-32.358-46.040-56.821-89.967-56.821v36.978c27.184 0 45.087 13.938 57.233 37.046 12.644 24.050 18.145 56.96 18.145 89.532 0 30.12-9.276 48.902-21.737 60.325-12.757 11.696-31.283 17.897-53.641 17.897v36.977c28.843 0 57.25-8.021 78.626-27.615zM375.731 436.093l16.538-33.075-0.028-0.011-0.026-0.014-0.026-0.011-56.809-28.407c-14.78-7.39-27.674-12.911-38.491-17.417-1.957-0.816-3.814-1.587-5.586-2.321-8.316-3.445-14.673-6.081-19.924-8.707-6.359-3.18-8.803-5.282-9.831-6.568-0.499-0.623-1.282-1.675-1.282-5.339v-72.769c6.88-2.375 17.336-5.535 31.745-8.738 30.578-6.795 79.002-13.781 148.878-13.781v-36.978c-72.348 0-123.477 7.236-156.9 14.663-16.709 3.712-28.981 7.472-37.254 10.391-4.136 1.459-7.27 2.711-9.456 3.638-1.093 0.464-1.95 0.845-2.576 1.135l-0.767 0.361-0.256 0.125-0.096 0.046-0.040 0.020c-0.008 0.006-0.035 0.017 8.234 16.555h-18.489v85.333c0 10.559 2.773 20.176 9.385 28.439 6.083 7.603 14.306 12.612 22.169 16.543 6.536 3.268 14.407 6.525 22.736 9.975 1.68 0.694 3.378 1.397 5.088 2.111 10.516 4.38 22.512 9.526 36.176 16.358l56.889 28.444zM241.777 248.889h-18.489v-11.426l10.22-5.111 8.269 16.538zM489.509 403.018l16.538 33.075 0.026-0.014 0.028-0.011 56.835-28.419c13.665-6.832 25.66-11.978 36.176-16.358 1.71-0.714 3.408-1.417 5.089-2.111 8.329-3.45 16.199-6.707 22.736-9.975 7.862-3.931 16.085-8.94 22.17-16.543 6.61-8.263 9.384-17.88 9.384-28.439v-85.322l-18.489-0.011c8.269-16.538 8.26-16.54 8.252-16.546l-0.060-0.028-0.35-0.171-0.768-0.361c-0.626-0.287-1.482-0.671-2.574-1.135-2.187-0.927-5.322-2.179-9.458-3.638-8.272-2.918-20.545-6.679-37.254-10.391-33.422-7.427-84.551-14.663-156.9-14.663v36.978c69.874 0 118.3 6.986 148.878 13.781 14.407 3.203 24.863 6.363 31.744 8.738v72.769c0 3.664-0.782 4.716-1.283 5.339-1.027 1.286-3.47 3.388-9.83 6.568-5.251 2.625-11.608 5.262-19.922 8.707-1.772 0.734-3.63 1.505-5.586 2.321-10.817 4.506-23.711 10.027-38.491 17.417l-56.889 28.444zM640 248.889l8.252-16.546 10.237 5.12v11.438l-18.489-0.011zM840.26 491.816l-256 256 26.146 26.147 256-256.001-26.146-26.146zM584.26 517.962l256 256.001 26.146-26.147-256-256-26.146 26.146z" />
<glyph unicode="&#xe90a;" glyph-name="loupe_icon" d="M824.889 183.040l-172.974 168.761c39.293 47.022 58.263 107.127 52.884 167.566-5.376 60.439-34.679 116.457-81.69 156.169-47.010 39.709-108.026 59.986-170.106 56.529s-120.337-30.377-162.412-75.047c-42.073-44.672-64.652-103.578-62.946-164.224 1.706-60.644 27.563-118.252 72.085-160.606 44.521-42.351 104.203-66.113 166.386-66.241 62.18-0.131 121.967 23.381 166.673 65.547l172.132-167.939 19.968 19.484zM466.847 292.804c-41.722 0-82.506 12.069-117.197 34.685-34.688 22.613-61.724 54.756-77.691 92.362-15.966 37.606-20.143 78.987-12.004 118.912 8.139 39.922 28.23 76.592 57.732 105.375 29.5 28.783 67.086 48.385 108.006 56.327 40.917 7.941 83.331 3.865 121.876-11.712s71.492-41.955 94.669-75.801c23.179-33.846 35.553-73.637 35.553-114.341 0-54.585-22.226-106.931-61.784-145.527-39.561-38.596-93.215-60.279-149.16-60.279zM837.106 183.037l-32.188-31.403-172.328 168.132c-45.585-40.209-104.923-62.484-166.494-62.353-64.336 0.134-126.126 24.715-172.248 68.591-46.132 43.884-72.963 103.62-74.734 166.551s21.663 124.018 65.264 170.311c43.594 46.288 103.916 74.141 168.147 77.718 64.233 3.577 127.397-17.399 176.091-58.532 48.7-41.137 79.101-99.215 84.682-161.929 5.348-60.109-12.516-119.871-49.863-167.643l173.67-169.444zM651.913 351.801l172.976-168.764-19.971-19.482-172.132 167.939c-44.706-42.166-104.491-65.678-166.673-65.55-62.18 0.131-121.865 23.893-166.386 66.244s-70.377 99.962-72.083 160.606c-1.706 60.644 20.873 119.552 62.947 164.221 42.072 44.672 100.329 71.592 162.409 75.049s123.099-16.82 170.109-56.529c47.010-39.711 76.311-95.73 81.69-156.169 5.376-60.442-13.594-120.548-52.887-167.566zM354.31 334.638c33.294-21.706 72.457-33.303 112.535-33.303 53.751 0 105.256 20.836 143.201 57.856 37.936 37.012 59.21 87.168 59.21 139.42 0 38.969-11.841 77.082-34.057 109.52-22.218 32.438-53.817 57.754-90.826 72.711-37.012 14.958-77.75 18.874-117.055 11.246s-75.381-26.451-103.674-54.056c-28.294-27.602-47.535-62.746-55.328-100.975-7.793-38.224-3.796-77.85 11.497-113.872s41.209-66.847 74.497-88.548zM349.65 327.487c34.691-22.613 75.474-34.685 117.194-34.685 55.947 0 109.602 21.686 149.16 60.282 39.561 38.596 61.784 90.943 61.784 145.527 0 40.704-12.37 80.495-35.55 114.341s-56.124 60.223-94.669 75.801c-38.545 15.577-80.959 19.653-121.879 11.712-40.917-7.941-78.504-27.543-108.006-56.326-29.5-28.783-49.591-65.454-57.731-105.375-8.139-39.925-3.962-81.306 12.004-118.912s43.002-69.749 77.693-92.365z" />
<glyph unicode="&#xe90b;" glyph-name="mail_arrow_icon" d="M512 840.584l268.026-193.576 1.050-1.047c0.899-0.899 1.863-1.846 2.876-2.839 5.934-5.814 13.508-13.241 19.282-22.48 7.336-11.736 11.699-25.859 11.699-44.644v-250.311c0-41.5-33.877-75.378-75.378-75.378h-455.111c-41.499 0-75.377 33.877-75.377 75.378v250.311c0 0.939-0.002 1.872-0.005 2.799-0.030 12.772-0.057 24.408 5.688 35.322 2.988 5.678 7.078 10.45 11.383 14.993 2.869 3.029 6.47 6.599 10.605 10.695 1.951 1.934 4.020 3.985 6.188 6.153l1.047 1.047 268.025 193.576zM268.023 618.763c-2.158-2.153-4.089-4.065-5.835-5.794-3.814-3.78-6.742-6.682-9.209-9.284-3.694-3.9-4.938-5.706-5.505-6.784-0.949-1.806-1.428-3.49-1.428-20.901v-250.311c0-21.077 17.322-38.4 38.399-38.4h455.111c21.080 0 38.4 17.323 38.4 38.4v250.311c0 12.504-2.745 19.715-6.079 25.045-3.265 5.225-7.293 9.207-13.232 15.081-0.848 0.836-1.732 1.712-2.66 2.634l-243.985 176.21-243.977-176.208zM471.922 402.341l-238.932 193.422 23.266 28.74 238.851-193.354c0.011-0.011 0.020-0.020 0.031-0.028 6.844-5.441 20.326-6.647 31.71 0.649l241.192 187.278 22.679-29.207-242.862-188.513c-22.633-15.090-54.337-16.265-75.85 0.944l-0.085 0.068zM417.732 455.629l-159.289-179.2-27.637 24.565 159.29 179.2 27.637-24.565zM337.067 637.156h349.867v-118.044h-36.978v81.067h-275.911v-81.067h-36.978v118.044zM725.672 323.544l-92.982 81.789 92.982 81.789 18.785-21.356-52.531-46.211h175.63v-28.444h-175.63l52.531-46.211-18.785-21.356z" />
<glyph unicode="&#xe90c;" glyph-name="mail_icon" d="M270.222 614.4c-21.078 0-38.4-17.323-38.4-38.4v-250.311c0-21.077 17.322-38.4 38.4-38.4h455.112c21.077 0 38.4 17.323 38.4 38.4v250.311c0 21.077-17.323 38.4-38.4 38.4h-455.112zM194.844 576c0 41.5 33.878 75.378 75.378 75.378h455.112c41.5 0 75.378-33.877 75.378-75.378v-250.311c0-41.5-33.877-75.378-75.378-75.378h-455.112c-41.5 0-75.378 33.877-75.378 75.378v250.311zM457.7 402.341l-238.932 193.422 23.266 28.74 238.851-193.354c0.011-0.011 0.020-0.020 0.031-0.028 6.844-5.441 20.326-6.647 31.71 0.649l241.192 187.278 22.679-29.207-242.862-188.513c-22.633-15.090-54.337-16.265-75.85 0.944l-0.085 0.068zM403.507 455.629l-159.29-179.2-27.637 24.565 159.288 179.2 27.639-24.565zM614.010 477.335l156.444-176.356-27.662-24.539-156.444 176.356 27.662 24.539z" />
<glyph unicode="&#xe90d;" glyph-name="mail_open_icon" d="M512 840.584l268.026-193.576 1.050-1.047c0.899-0.899 1.863-1.846 2.876-2.839 5.934-5.814 13.508-13.241 19.282-22.48 7.336-11.736 11.699-25.859 11.699-44.644v-250.311c0-41.5-33.877-75.378-75.378-75.378h-455.111c-41.499 0-75.377 33.877-75.377 75.378v250.311c0 0.939-0.002 1.872-0.005 2.799-0.030 12.772-0.057 24.408 5.688 35.322 2.988 5.678 7.078 10.45 11.383 14.993 2.869 3.029 6.47 6.599 10.605 10.695 1.951 1.934 4.020 3.985 6.188 6.153l1.047 1.047 268.025 193.576zM268.023 618.763c-2.158-2.153-4.089-4.065-5.835-5.794-3.814-3.78-6.742-6.682-9.209-9.284-3.694-3.9-4.938-5.706-5.505-6.784-0.949-1.806-1.428-3.49-1.428-20.901v-250.311c0-21.077 17.322-38.4 38.399-38.4h455.111c21.080 0 38.4 17.323 38.4 38.4v250.311c0 12.504-2.745 19.715-6.079 25.045-3.265 5.225-7.293 9.207-13.232 15.081-0.848 0.836-1.732 1.712-2.66 2.634l-243.985 176.21-243.977-176.208zM471.922 402.341l-238.932 193.422 23.266 28.74 238.851-193.354c0.011-0.011 0.020-0.020 0.031-0.028 6.844-5.441 20.326-6.647 31.71 0.649l241.192 187.278 22.679-29.207-242.862-188.513c-22.633-15.090-54.337-16.265-75.85 0.944l-0.085 0.068zM417.732 455.629l-159.289-179.2-27.637 24.565 159.29 179.2 27.637-24.565zM628.233 477.335l156.444-176.356-27.662-24.539-156.444 176.356 27.662 24.539zM337.067 637.156h349.867v-118.044h-36.978v81.067h-275.911v-81.067h-36.978v118.044z" />
<glyph unicode="&#xe90e;" glyph-name="man_icon" d="M455.111 543.289c-84.045 0-152.178-68.133-152.178-152.178s68.133-152.178 152.178-152.178c84.045 0 152.178 68.133 152.178 152.178s-68.133 152.178-152.178 152.178zM265.955 391.111c0 104.468 84.688 189.156 189.156 189.156s189.156-84.688 189.156-189.156c0-104.468-84.688-189.156-189.156-189.156s-189.156 84.688-189.156 189.156zM724.793 663.12l-142.222-156.444-27.364 24.872 142.222 156.445 27.364-24.873zM734.162 694.865l9.626-160.426-36.912-2.213-7.441 124.018-143.918-6.645-1.704 36.939 180.349 8.326z" />
<glyph unicode="&#xe90f;" glyph-name="message_icon" d="M254.446 163.556v125.656c-17.567 4.415-33.093 14.549-44.048 28.754s-16.691 31.639-16.273 49.459v256.438c-0.615 20.605 7.105 40.613 21.467 55.634s34.197 23.832 55.157 24.502h482.569c20.961-0.67 40.795-9.481 55.157-24.502 14.364-15.021 22.084-35.029 21.467-55.634v-256.438c0.617-20.608-7.103-40.616-21.467-55.637-14.362-15.019-34.196-23.831-55.157-24.502h-391.27l-107.601-123.73zM270.748 671.946c-12.314-0.663-23.858-6.096-32.108-15.107s-12.532-20.867-11.91-32.976v-256.438c-0.622-12.109 3.66-23.967 11.91-32.978s19.794-14.441 32.108-15.104h16.304v-68.599l59.017 68.599h407.248c12.314 0.663 23.859 6.093 32.108 15.104s12.533 20.87 11.91 32.978v256.438c0.623 12.109-3.661 23.964-11.91 32.976s-19.794 14.444-32.108 15.107h-482.569zM270.748 708.266h482.706c22.064-0.705 42.96-9.983 58.103-25.82 15.13-15.825 23.282-36.911 22.65-58.645v-256.313c0.631-21.737-7.521-42.823-22.65-58.647-15.144-15.838-36.039-25.114-58.103-25.819l-0.137-0.003h-389.328l-113.811-130.873v133.806c-17.159 5.032-32.29 15.314-43.16 29.409-11.537 14.959-17.59 33.326-17.161 52.113v256.327c-0.631 21.734 7.52 42.82 22.65 58.645 15.143 15.837 36.039 25.113 58.104 25.818l0.136 0.002zM270.817 699.733c-19.829-0.651-38.575-8.995-52.142-23.184-13.58-14.203-20.867-33.104-20.286-52.557l0.004-0.128-0.002-256.54c-0.395-16.836 5.023-33.317 15.385-46.751 10.363-13.437 25.062-23.040 41.709-27.224l3.227-0.811v-117.572l101.389 116.588h393.145c19.831 0.651 38.576 8.997 52.144 23.185 13.579 14.202 20.867 33.104 20.287 52.56l-0.006 0.128 0.003 256.566c0.58 19.453-6.704 38.354-20.284 52.557-13.568 14.19-32.313 22.533-52.142 23.184h-482.432zM270.748 676.212h482.8c13.417-0.722 26.012-6.647 35.024-16.491 8.988-9.819 13.679-22.744 13.030-35.965v-256.225c0.649-13.218-4.042-26.146-13.030-35.965-9.011-9.842-21.606-15.761-35.026-16.484l-0.228-0.014-405.291 0.009-65.242-75.833v75.833h-12.266c-13.418 0.722-26.014 6.647-35.025 16.489-8.989 9.819-13.679 22.747-13.030 35.965v256.225c-0.649 13.221 4.041 26.146 13.030 35.965 9.012 9.845 21.608 15.764 35.026 16.485l0.229 0.006zM270.865 667.679c-11.168-0.631-21.616-5.569-29.079-13.722-7.485-8.175-11.359-18.918-10.796-29.875l0.011-0.219-0.005-256.66c-0.563-10.957 3.305-21.7 10.79-29.875 7.463-8.152 17.911-13.090 29.079-13.719h20.451v-61.363l52.793 61.363h409.088c11.17 0.629 21.618 5.567 29.079 13.719 7.487 8.175 11.361 18.918 10.798 29.878l-0.011 0.219 0.006 256.657c0.563 10.957-3.305 21.7-10.792 29.875-7.461 8.152-17.909 13.090-29.076 13.722h-482.335zM715.822 607.835h-407.575v-32.054h407.575v32.054zM303.98 612.102h416.108v-40.587h-416.108v40.587zM312.513 603.568v-23.521h399.041v23.521h-399.041zM614.090 511.67h-305.843v-32.054h305.843v32.054zM303.98 515.937h314.377v-40.587h-314.377v40.587zM312.513 507.403v-23.521h297.31v23.521h-297.31zM657.456 415.505h-349.21v-32.054h349.21v32.054zM303.98 419.772h357.743v-40.587h-357.743v40.587zM312.513 411.238v-23.521h340.676v23.521h-340.676z" />
<glyph unicode="&#xe910;" glyph-name="music_icon" d="M329.89 276.326c-9.518-6.471-12.735-13.486-12.735-18.904s3.217-12.433 12.735-18.904c9.418-6.406 23.467-10.962 39.888-10.962s30.467 4.557 39.885 10.962c9.518 6.471 12.737 13.486 12.737 18.904s-3.22 12.433-12.737 18.904c-9.418 6.403-23.464 10.962-39.885 10.962s-30.47-4.56-39.888-10.962zM309.097 306.904c16.319 11.096 37.828 17.362 60.681 17.362s44.362-6.266 60.678-17.362c16.222-11.031 28.922-28.194 28.922-49.482s-12.7-38.451-28.922-49.482c-16.316-11.096-37.825-17.362-60.678-17.362s-44.362 6.266-60.681 17.362c-16.219 11.031-28.92 28.194-28.92 49.482s12.701 38.451 28.92 49.482zM571.668 350.282c-9.518-6.471-12.735-13.486-12.735-18.904s3.217-12.433 12.735-18.904c9.418-6.406 23.467-10.962 39.888-10.962s30.467 4.557 39.885 10.962c9.518 6.471 12.737 13.486 12.737 18.904s-3.22 12.433-12.737 18.904c-9.418 6.406-23.464 10.962-39.885 10.962s-30.47-4.557-39.888-10.962zM550.875 380.86c16.319 11.096 37.828 17.362 60.681 17.362s44.362-6.266 60.678-17.362c16.222-11.031 28.922-28.194 28.922-49.482s-12.7-38.451-28.922-49.482c-16.316-11.096-37.825-17.362-60.678-17.362s-44.362 6.266-60.681 17.362c-16.219 11.031-28.919 28.194-28.919 49.482s12.7 38.451 28.919 49.482zM701.156 683.074v-351.696h-36.978v296.838l-201.956-81.744v-289.050h-36.978v313.973l275.911 111.679zM689.428 564.48l-238.933-93.867-13.522 34.418 238.933 93.867 13.522-34.418z" />
<glyph unicode="&#xe911;" glyph-name="profile_icon" d="M446.982 653.392c-12.462-11.423-21.737-30.205-21.737-60.325 0-32.862 4.873-65.823 16.893-89.865 11.477-22.955 28.607-36.713 55.64-36.713v-36.978c-44.078 0-72.459 24.641-88.715 57.153-15.71 31.425-20.796 70.997-20.796 106.402 0 38.147 12.058 67.721 33.729 87.584 21.376 19.594 49.786 27.615 78.626 27.615v-36.977c-22.357 0-40.88-6.201-53.641-17.897zM576.404 680.651c21.672-19.864 33.729-49.438 33.729-87.584 0-35.698-5.877-75.318-22.389-106.735-17.010-32.358-46.040-56.821-89.967-56.821v36.978c27.184 0 45.087 13.938 57.233 37.046 12.644 24.050 18.145 56.96 18.145 89.532 0 30.12-9.276 48.902-21.737 60.325-12.757 11.696-31.283 17.897-53.641 17.897v36.977c28.843 0 57.25-8.021 78.626-27.615zM432.62 436.093l16.538-33.075-0.028-0.011-0.026-0.014-0.026-0.011-56.809-28.407c-14.78-7.39-27.674-12.911-38.491-17.417-1.957-0.816-3.814-1.587-5.586-2.321-8.314-3.445-14.674-6.081-19.922-8.707-6.36-3.18-8.804-5.282-9.833-6.568-0.498-0.623-1.28-1.675-1.28-5.339v-72.769c6.881-2.375 17.334-5.535 31.744-8.738 30.578-6.795 79.002-13.781 148.878-13.781v-36.978c-72.348 0-123.477 7.236-156.9 14.663-16.711 3.712-28.982 7.472-37.254 10.391-4.136 1.459-7.27 2.711-9.458 3.638-1.092 0.464-1.948 0.845-2.574 1.135l-0.768 0.361-0.256 0.125-0.097 0.046-0.040 0.020c-0.009 0.006-0.034 0.017 8.235 16.555h-18.489v85.333c0 10.559 2.773 20.176 9.384 28.439 6.084 7.603 14.308 12.612 22.17 16.543 6.537 3.268 14.407 6.525 22.736 9.975 1.681 0.694 3.379 1.397 5.089 2.111 10.516 4.38 22.511 9.526 36.176 16.358l56.889 28.444zM298.667 248.889h-18.489v-11.426l10.221-5.111 8.269 16.538zM546.398 403.018l16.538 33.075 0.026-0.014 0.028-0.011 56.835-28.419c13.665-6.832 25.66-11.978 36.176-16.358 1.71-0.714 3.408-1.417 5.089-2.111 8.329-3.45 16.199-6.707 22.736-9.975 7.862-3.931 16.085-8.94 22.17-16.543 6.61-8.263 9.384-17.88 9.384-28.439v-85.322l-18.489-0.011c8.269-16.538 8.26-16.54 8.252-16.546l-0.060-0.028-0.35-0.171-0.768-0.361c-0.626-0.287-1.482-0.671-2.574-1.135-2.187-0.927-5.322-2.179-9.458-3.638-8.272-2.918-20.545-6.679-37.254-10.391-33.422-7.427-84.551-14.663-156.9-14.663v36.978c69.874 0 118.3 6.986 148.878 13.781 14.407 3.203 24.863 6.363 31.744 8.738v72.769c0 3.664-0.782 4.716-1.283 5.339-1.027 1.286-3.47 3.388-9.83 6.568-5.251 2.625-11.608 5.262-19.922 8.707-1.772 0.734-3.63 1.505-5.586 2.321-10.817 4.506-23.711 10.027-38.491 17.417l-56.889 28.444zM696.889 248.889l8.252-16.546 10.237 5.12v11.438l-18.489-0.011z" />
<glyph unicode="&#xe912;" glyph-name="quote_icon" d="M398.945 414.35c15.75-4.403 28.686-12.658 38.81-24.764 10.126-12.106 15.186-26.411 15.186-42.92 0-19.809-6.75-36.318-20.247-49.525-13.5-13.207-29.813-19.809-48.936-19.809-20.247 0-37.123 6.602-50.62 19.809-13.5 13.207-20.25 29.716-20.25 49.525s5.063 45.121 15.186 75.935l65.809 224.509h59.056l-53.996-232.761zM657.115 414.35c15.75-4.403 28.686-12.658 38.81-24.764s15.186-26.411 15.186-42.92c0-19.809-6.75-36.318-20.25-49.525-13.497-13.207-29.81-19.809-48.933-19.809-20.25 0-37.123 6.602-50.623 19.809-13.497 13.207-20.247 29.716-20.247 49.525s5.060 45.121 15.186 75.935l65.806 224.509h59.059l-53.996-232.761z" />
<glyph unicode="&#xe913;" glyph-name="settings_icon" d="M500.622 500.622c-22.778 0-41.244-18.466-41.244-41.244s18.466-41.244 41.244-41.244c22.778 0 41.244 18.466 41.244 41.244s-18.466 41.244-41.244 41.244zM422.4 459.378c0 43.201 35.021 78.222 78.222 78.222s78.222-35.021 78.222-78.222c0-43.201-35.021-78.222-78.222-78.222s-78.222 35.021-78.222 78.222zM499.826 708.266c0.267 0 0.532 0 0.796 0s0.529 0 0.796 0c10.891 0.002 24.215 0.005 37.82-3.397l9.535-2.383 25.151-69.165 65.778 32.89 9.902-8.252c16.725-13.938 35.342-29.449 50.953-51.302l6.471-9.060-32.29-64.575 0.006-0.162c0.048-1.257 0.245-2.765 0.629-5.447l0.043-0.304c0.137-0.95 0.296-2.074 0.447-3.308l56.414-18.805 2.463-9.847c3.399-13.602 3.399-26.928 3.396-37.82v-1.593c0.003-10.891 0.003-24.218-3.396-37.823l-2.463-9.845-66.204-22.070 32.853-65.704-8.252-9.899c-13.938-16.725-29.449-35.345-51.302-50.953l-9.060-6.471-64.845 32.421-22.067-66.204-9.847-2.46c-13.605-3.402-26.928-3.399-37.82-3.396h-1.593c-10.891-0.003-24.218-0.006-37.823 3.396l-9.845 2.46-22.070 66.204-65.704-32.85-9.899 8.252c-16.725 13.935-35.345 29.449-50.953 51.302l-6.471 9.057 33.32 66.64c-0.122 0.185-0.267 0.384-0.441 0.597-0.122 0.148-0.25 0.29-0.381 0.427l-66.28 22.096-2.462 9.845c-3.401 13.605-3.399 26.931-3.397 37.823 0 0.267 0 0.532 0 0.796s0 0.529 0 0.796c-0.002 10.891-0.005 24.215 3.397 37.82l2.383 9.535 69.166 25.151-32.461 64.919 6.471 9.060c15.377 21.53 30.774 36.841 51.368 54.491l9.321 7.99 65.98-32.99 25.287 66.381 9.358 2.34c13.605 3.401 26.931 3.399 37.823 3.397zM480.043 670.578l-18.921-49.673c-3.385-9.682-11.034-16.836-19.521-20.372-8.596-3.581-19.723-4.073-29.716 2.008l-44.951 22.477c-11.517-10.368-20.762-19.886-29.557-31.050l22.926-45.852c6.081-9.993 5.589-21.12 2.008-29.716-3.556-8.533-10.769-16.222-20.534-19.578l-52.375-19.044c-0.654-6.11-0.691-12.692-0.691-20.4 0-7.575 0.037-14.060 0.657-20.079l51.627-17.209 2.059-1.374c7.159-4.773 13.332-11.978 16.603-20.48 3.243-8.431 3.968-19.47-2.202-29.599l-22.844-45.69c8.747-10.502 18.54-19.419 29.218-28.493l45.21 22.605c9.993 6.081 21.12 5.589 29.716 2.008 8.616-3.59 16.37-10.911 19.672-20.821l16.427-49.277c6.019-0.62 12.504-0.657 20.079-0.657s14.057 0.037 20.079 0.657l16.424 49.277c3.305 9.91 11.056 17.232 19.675 20.821 8.596 3.581 19.723 4.073 29.716-2.008l45.693-22.847c10.502 8.747 19.416 18.54 28.493 29.218l-22.605 45.21c-6.081 9.993-5.589 21.12-2.008 29.716 3.59 8.616 10.908 16.37 20.818 19.672l49.28 16.427c0.62 6.019 0.657 12.504 0.657 20.079s-0.037 14.057-0.657 20.079l-66.819 22.272 5.712 17.138c0.009 0.139 0.011 0.373 0 0.717-0.048 1.257-0.245 2.762-0.629 5.447l-0.043 0.304c-0.33 2.29-0.805 5.615-0.93 9.003-0.134 3.627 0.068 8.368 1.735 13.375l0.415 1.249 23.848 47.693c-8.747 10.502-18.54 19.416-29.221 28.493l-45.207-22.605c-9.993-6.081-21.12-5.589-29.716-2.008-8.533 3.556-16.222 10.769-19.578 20.534l-19.044 52.375c-6.11 0.651-12.692 0.691-20.4 0.691-7.785 0-14.418-0.040-20.58-0.711z" />
<glyph unicode="&#xe914;" glyph-name="smile_icon" d="M500.622 671.289c-117.035 0-211.911-94.876-211.911-211.911s94.876-211.911 211.911-211.911c117.035 0 211.911 94.876 211.911 211.911s-94.876 211.911-211.911 211.911zM251.733 459.378c0 137.458 111.432 248.889 248.889 248.889s248.889-111.431 248.889-248.889c0-137.458-111.431-248.889-248.889-248.889s-248.889 111.431-248.889 248.889zM415.295 426.652c10.101-24.294 43.108-45.497 83.627-45.497 37.962 0 69.706 19.305 81.966 43.176l32.893-16.893c-19.783-38.522-65.852-63.26-114.859-63.26-51.026 0-100.409 26.513-117.771 68.281l34.145 14.194zM568.889 504.889c15.71 0 28.444 12.735 28.444 28.444s-12.735 28.444-28.444 28.444c-15.71 0-28.444-12.735-28.444-28.444s12.735-28.444 28.444-28.444zM426.667 504.889c15.71 0 28.444 12.735 28.444 28.444s-12.735 28.444-28.444 28.444c-15.71 0-28.444-12.735-28.444-28.444s12.735-28.444 28.444-28.444z" />
<glyph unicode="&#xe915;" glyph-name="video_icon" d="M298.667 657.067c-21.078 0-38.401-17.323-38.401-38.4v-341.333c0-21.077 17.322-38.4 38.401-38.4h455.111c21.077 0 38.4 17.323 38.4 38.4v341.333c0 21.077-17.323 38.4-38.4 38.4h-455.111zM223.288 618.667c0 41.5 33.878 75.377 75.378 75.377h455.111c41.5 0 75.378-33.877 75.378-75.377v-341.333c0-41.5-33.877-75.378-75.378-75.378h-455.111c-41.501 0-75.378 33.877-75.378 75.378v341.333zM450.844 579.746l225.849-131.746-225.849-131.746v263.492zM487.822 515.365v-134.73l115.484 67.365-115.484 67.365z" />
<glyph unicode="&#xe916;" glyph-name="view_icon" d="M294.844 541.133c54.599 40.038 131.738 81.801 217.156 81.801 85.456 0 161.903-41.791 215.831-81.872 27.179-20.201 49.18-40.371 64.404-55.504 7.623-7.578 13.571-13.915 17.647-18.398 2.039-2.244 3.61-4.025 4.69-5.265 0.54-0.62 0.959-1.106 1.249-1.451l0.444-0.521 0.031-0.040c0.006-0.003 0.020-0.023-14.162-11.884 14.31-11.708 14.308-11.713 14.302-11.719l-0.043-0.051-0.1-0.122-0.338-0.407c-0.287-0.344-0.697-0.831-1.229-1.454-1.064-1.246-2.608-3.032-4.614-5.279-4.008-4.491-9.862-10.84-17.38-18.426-15.013-15.152-36.764-35.345-63.787-55.566-53.663-40.155-130.105-81.909-216.946-81.909-86.804 0-163.937 41.725-218.268 81.838-27.368 20.204-49.469 40.38-64.745 55.518-7.648 7.58-13.612 13.921-17.696 18.409-2.043 2.244-3.618 4.025-4.7 5.268-0.541 0.623-0.96 1.109-1.252 1.454l-0.477 0.56c-0.005 0.006-0.020 0.026 14.162 11.887-14.056 12.012-14.052 12.015-14.047 12.021l0.145 0.168 0.348 0.404c0.297 0.341 0.722 0.825 1.273 1.445 1.101 1.237 2.703 3.015 4.78 5.257 4.152 4.477 10.211 10.812 17.964 18.381 15.486 15.118 37.837 35.274 65.359 55.458zM219.023 448l-14.047 12.021-10.163-11.893 10.028-11.989 14.182 11.861zM244.058 447.886c3.054-3.226 6.72-7 10.957-11.199 14.323-14.194 35.067-33.129 60.679-52.036 51.621-38.11 120.98-74.607 196.306-74.607 75.292 0 143.918 36.469 194.79 74.536 25.244 18.89 45.625 37.808 59.676 51.988 4.213 4.252 7.848 8.067 10.863 11.318-3.095 3.28-6.832 7.14-11.164 11.446-14.285 14.199-34.95 33.141-60.393 52.050-51.317 38.141-119.936 74.573-193.772 74.573-73.87 0-143.221-36.46-195.288-74.644-25.81-18.927-46.837-37.882-61.395-52.096-4.357-4.255-8.124-8.073-11.258-11.329zM802.133 448l14.302-11.719 9.694 11.847-9.813 11.733-14.182-11.861zM509.156 529.067c-44.772 0-81.067-36.295-81.067-81.067s36.295-81.067 81.067-81.067c44.772 0 81.067 36.295 81.067 81.067s-36.295 81.067-81.067 81.067zM391.111 448c0 65.195 52.85 118.044 118.044 118.044s118.044-52.85 118.044-118.044c0-65.195-52.85-118.044-118.044-118.044s-118.044 52.85-118.044 118.044z" />
</font>
</defs>
</svg>
