<svg width="36" height="36" viewBox="0 0 36 36" fill="none" xmlns="http://www.w3.org/2000/svg">
<path fill-rule="evenodd" clip-rule="evenodd" d="M13.1 16.15C12.559 16.15 12.15 16.559 12.15 17.1V24.1C12.15 24.641 12.559 25.05 13.1 25.05H21.9C22.4152 25.05 22.85 24.6674 22.85 24V17.1C22.85 16.559 22.441 16.15 21.9 16.15H13.1ZM10.85 17.1C10.85 15.841 11.841 14.85 13.1 14.85H21.9C23.159 14.85 24.15 15.841 24.15 17.1V24C24.15 25.3326 23.1848 26.35 21.9 26.35H13.1C11.841 26.35 10.85 25.359 10.85 24.1V17.1Z" fill="black"/>
<path fill-rule="evenodd" clip-rule="evenodd" d="M17.5 10.15C15.759 10.15 14.35 11.559 14.35 13.3V15.4H13.05V13.3C13.05 10.841 15.0411 8.85001 17.5 8.85001C19.959 8.85001 21.95 10.841 21.95 13.3H20.65C20.65 11.559 19.2411 10.15 17.5 10.15Z" fill="black"/>
<path fill-rule="evenodd" clip-rule="evenodd" d="M15.35 19.6C15.35 18.3686 16.3141 17.35 17.5 17.35C18.6859 17.35 19.65 18.3686 19.65 19.6C19.65 19.9055 19.5736 20.4021 19.25 20.7831V22C19.25 22.959 18.459 23.75 17.5 23.75C16.541 23.75 15.75 22.959 15.75 22V20.8446C15.6375 20.6994 15.547 20.5429 15.4808 20.3708C15.3817 20.1133 15.35 19.8543 15.35 19.6ZM17.5 18.65C17.0859 18.65 16.65 19.0315 16.65 19.6C16.65 19.7457 16.6682 19.8367 16.6942 19.9042C16.719 19.9687 16.7632 20.044 16.8596 20.1404L17.05 20.3308V22C17.05 22.241 17.259 22.45 17.5 22.45C17.741 22.45 17.95 22.241 17.95 22V20.1521L18.2394 19.9592C18.2477 19.9536 18.2769 19.9294 18.3058 19.8542C18.335 19.7783 18.35 19.6843 18.35 19.6C18.35 19.0315 17.9141 18.65 17.5 18.65Z" fill="black"/>
</svg>
