<svg width="36" height="36" viewBox="0 0 36 36" fill="none" xmlns="http://www.w3.org/2000/svg">
<path fill-rule="evenodd" clip-rule="evenodd" d="M20.312 11.8028L14.042 17.0775C13.6767 17.4576 13.6287 17.9852 13.9165 18.4046L15.3961 20.1801C15.5998 20.4163 15.8254 20.5212 16.0251 20.5405C16.2221 20.5596 16.4498 20.5012 16.6769 20.3065L16.6838 20.3006L22.08 15.8038C22.3163 15.6002 22.4212 15.3746 22.4405 15.1749C22.4595 14.9778 22.4011 14.7502 22.2064 14.523C22.0021 14.2846 21.7754 14.1789 21.5748 14.1595C21.3778 14.1404 21.1501 14.1988 20.923 14.3935L20.9171 14.3985L16.0171 18.4985L15.1828 17.5015L20.0801 13.4038C20.5523 13.0003 21.1234 12.8097 21.7001 12.8655C22.2745 12.9211 22.7978 13.2154 23.1935 13.677C23.5988 14.1498 23.7904 14.7222 23.7344 15.3001C23.6788 15.8746 23.3846 16.3979 22.923 16.7935L22.9161 16.7994L17.5193 21.2966C17.0472 21.6998 16.4763 21.8903 15.8998 21.8345C15.3254 21.7789 14.8021 21.4846 14.4064 21.023L14.4006 21.0162L12.8851 19.1975L12.871 19.1778C12.1772 18.2065 12.3269 16.9538 13.1403 16.1404L13.1601 16.1206L19.4876 10.7974L19.4939 10.7924C21.2704 9.3712 23.7541 9.61842 25.2763 11.2577L25.2901 11.2726L26.2076 12.3939C27.6288 14.1705 27.3815 16.6541 25.7422 18.1763L25.73 18.1877L16.5116 25.9031L16.506 25.9076C14.7295 27.3288 12.2458 27.0816 10.7236 25.4423L10.7098 25.4274L9.79236 24.3061C8.37378 22.5328 8.61746 20.0551 10.2485 18.5322L10.4403 18.3404L11.3596 19.2596L11.1511 19.4681L11.1422 19.4763C9.98238 20.5533 9.82898 22.268 10.8054 23.4913L11.6895 24.5719C12.7665 25.718 14.4705 25.8668 15.6886 24.8967L24.8693 17.2128C26.0185 16.1351 26.1676 14.4279 25.1945 13.2087L24.3104 12.1281C23.2335 10.9822 21.53 10.8333 20.312 11.8028Z" fill="black"/>
</svg>
