<svg width="36" height="36" viewBox="0 0 36 36" fill="none" xmlns="http://www.w3.org/2000/svg">
<path fill-rule="evenodd" clip-rule="evenodd" d="M21.7138 12.1435C21.9677 11.8897 22.3792 11.8897 22.6331 12.1435L25.3201 14.8305C25.5739 15.0844 25.5739 15.4959 25.3201 15.7498L16.9056 24.1642C16.6517 24.4181 16.2402 24.4181 15.9863 24.1642L13.2994 21.4773C13.0455 21.2234 13.0455 20.8119 13.2994 20.558L21.7138 12.1435ZM22.1735 13.5224L14.6782 21.0176L16.446 22.7854L23.9412 15.2901L22.1735 13.5224Z" fill="black"/>
<path fill-rule="evenodd" clip-rule="evenodd" d="M12.3782 23.1107L13.0782 20.8107L14.3218 21.1892L13.6227 23.4863L13.4746 23.99L14.4042 23.6801L16.3043 23.0802L16.6957 24.3198L14.8006 24.9183L12.7055 25.6166C12.4759 25.6932 12.2228 25.6358 12.0487 25.4677C11.8745 25.2997 11.8081 25.0488 11.8764 24.8166L12.3782 23.1107Z" fill="black"/>
<path fill-rule="evenodd" clip-rule="evenodd" d="M23.9987 9.7836L27.6049 13.3898L24.7765 16.2182L21.1703 12.612L23.9987 9.7836ZM23.9987 11.6221L23.0087 12.612L24.7765 14.3798L25.7664 13.3898L23.9987 11.6221Z" fill="black"/>
<path fill-rule="evenodd" clip-rule="evenodd" d="M23.9596 14.3596L15.5596 22.7596L14.6404 21.8404L23.0404 13.4404L23.9596 14.3596Z" fill="black"/>
<path fill-rule="evenodd" clip-rule="evenodd" d="M13.7237 25.1423L12.4237 23.7423L13.3763 22.8577L14.6763 24.2577L13.7237 25.1423Z" fill="black"/>
</svg>
