<svg width="36" height="36" viewBox="0 0 36 36" fill="none" xmlns="http://www.w3.org/2000/svg">
<path fill-rule="evenodd" clip-rule="evenodd" d="M18 8.65001C15.0453 8.65001 12.65 11.0453 12.65 14C12.65 16.9547 15.0453 19.35 18 19.35C20.9547 19.35 23.35 16.9547 23.35 14C23.35 11.0453 20.9547 8.65001 18 8.65001ZM11.35 14C11.35 10.3273 14.3273 7.35001 18 7.35001C21.6727 7.35001 24.65 10.3273 24.65 14C24.65 17.6727 21.6727 20.65 18 20.65C14.3273 20.65 11.35 17.6727 11.35 14Z" fill="black"/>
<path fill-rule="evenodd" clip-rule="evenodd" d="M17.35 27V20H18.65V27H17.35Z" fill="black"/>
<path fill-rule="evenodd" clip-rule="evenodd" d="M15 23.35H21V24.65H15V23.35Z" fill="black"/>
</svg>
