<svg width="36" height="36" viewBox="0 0 36 36" fill="none" xmlns="http://www.w3.org/2000/svg">
<path fill-rule="evenodd" clip-rule="evenodd" d="M20.7142 10.7792C20.2761 11.1808 19.95 11.8411 19.95 12.9C19.95 14.0553 20.1213 15.2141 20.5439 16.0593C20.9474 16.8663 21.5496 17.35 22.5 17.35V18.65C20.9504 18.65 19.9526 17.7837 19.3811 16.6407C18.8288 15.5359 18.65 14.1447 18.65 12.9C18.65 11.5589 19.0739 10.5192 19.8358 9.82086C20.5873 9.13201 21.5861 8.85001 22.6 8.85001V10.15C21.814 10.15 21.1628 10.368 20.7142 10.7792Z" fill="black"/>
<path fill-rule="evenodd" clip-rule="evenodd" d="M25.2642 9.82086C26.0261 10.5192 26.45 11.5589 26.45 12.9C26.45 14.155 26.2434 15.5479 25.6629 16.6524C25.0649 17.79 24.0443 18.65 22.5 18.65V17.35C23.4557 17.35 24.0851 16.86 24.5121 16.0476C24.9566 15.2021 25.15 14.0451 25.15 12.9C25.15 11.8411 24.8239 11.1808 24.3858 10.7792C23.9373 10.368 23.286 10.15 22.5 10.15V8.85001C23.514 8.85001 24.5127 9.13201 25.2642 9.82086Z" fill="black"/>
<path fill-rule="evenodd" clip-rule="evenodd" d="M20.2093 18.4186L20.7907 19.5814L20.7897 19.5818L20.7888 19.5823L20.7879 19.5827L20.7869 19.5832L18.7907 20.5814C18.2711 20.8412 17.8178 21.0353 17.4375 21.1937C17.3687 21.2224 17.3034 21.2495 17.2411 21.2753C16.9488 21.3964 16.7252 21.4891 16.5407 21.5814C16.3171 21.6932 16.2312 21.7671 16.195 21.8123C16.1775 21.8342 16.15 21.8712 16.15 22V24.5583C16.3919 24.6418 16.7594 24.7529 17.266 24.8655C18.341 25.1044 20.0434 25.35 22.5 25.35V26.65C19.9565 26.65 18.159 26.3956 16.984 26.1345C16.3965 26.004 15.9651 25.8718 15.6743 25.7692C15.5289 25.7179 15.4187 25.6739 15.3418 25.6413C15.3034 25.625 15.2733 25.6116 15.2513 25.6014L15.2243 25.5887L15.2153 25.5843L15.2119 25.5827L15.2105 25.582C15.2102 25.5818 15.2093 25.5814 15.5 25L14.85 25V22C14.85 21.6288 14.9475 21.2907 15.1799 21.0002C15.3938 20.7329 15.6829 20.5568 15.9593 20.4186C16.1891 20.3037 16.4658 20.1892 16.7586 20.0679C16.8177 20.0435 16.8774 20.0188 16.9375 19.9937C17.3072 19.8397 17.7289 19.6588 18.2093 19.4186L20.2035 18.4215L20.2044 18.4211L20.2054 18.4206L20.2064 18.4201L20.2073 18.4196L20.2083 18.4191L20.2093 18.4186ZM15.5 25L14.85 25V25.4017L15.2093 25.5814L15.5 25Z" fill="black"/>
<path fill-rule="evenodd" clip-rule="evenodd" d="M24.2093 19.5814L24.7907 18.4186L24.7916 18.4191L24.7926 18.4195L26.7907 19.4186C27.2711 19.6588 27.6928 19.8397 28.0625 19.9937C28.1226 20.0188 28.1823 20.0435 28.2414 20.0679C28.5342 20.1892 28.8109 20.3037 29.0407 20.4186C29.3171 20.5568 29.6062 20.7329 29.8201 21.0002C30.0525 21.2907 30.15 21.6288 30.15 22V24.9996L29.5 25C29.7907 25.5814 29.7904 25.5815 29.7901 25.5817L29.788 25.5827L29.7847 25.5843L29.7757 25.5887L29.7487 25.6014C29.7267 25.6115 29.6966 25.625 29.6582 25.6413C29.5813 25.6739 29.4711 25.7179 29.3257 25.7692C29.0349 25.8718 28.6034 26.004 28.016 26.1345C26.841 26.3956 25.0435 26.65 22.5 26.65V25.35C24.9565 25.35 26.659 25.1044 27.734 24.8655C28.2405 24.7529 28.6081 24.6418 28.85 24.5583V22C28.85 21.8712 28.8225 21.8342 28.8049 21.8123C28.7688 21.7671 28.6829 21.6932 28.4593 21.5814C28.2747 21.4891 28.0512 21.3964 27.7589 21.2753C27.6966 21.2495 27.6313 21.2224 27.5625 21.1937C27.1822 21.0353 26.7289 20.8412 26.2093 20.5814L24.2093 19.5814ZM29.5 25L29.7901 25.5817L30.15 25.4017V24.9996L29.5 25Z" fill="black"/>
<path fill-rule="evenodd" clip-rule="evenodd" d="M10.714 19.7279L10.714 7.00001H12.014L12.014 19.7279H10.714Z" fill="black"/>
<path fill-rule="evenodd" clip-rule="evenodd" d="M5.00001 12.714L17.7279 12.714L17.7279 14.014L5.00001 14.014L5.00001 12.714Z" fill="black"/>
</svg>
