<svg width="36" height="36" viewBox="0 0 36 36" fill="none" xmlns="http://www.w3.org/2000/svg">
<path fill-rule="evenodd" clip-rule="evenodd" d="M13.7142 10.7792C13.2761 11.1808 12.95 11.8411 12.95 12.9C12.95 14.0553 13.1213 15.2141 13.5439 16.0593C13.9474 16.8663 14.5496 17.35 15.5 17.35V18.65C13.9504 18.65 12.9526 17.7837 12.3811 16.6407C11.8288 15.5359 11.65 14.1447 11.65 12.9C11.65 11.5589 12.0739 10.5192 12.8358 9.82086C13.5873 9.13201 14.5861 8.85001 15.6 8.85001V10.15C14.814 10.15 14.1628 10.368 13.7142 10.7792Z" fill="black"/>
<path fill-rule="evenodd" clip-rule="evenodd" d="M18.2642 9.82086C19.0261 10.5192 19.45 11.5589 19.45 12.9C19.45 14.155 19.2434 15.5479 18.6629 16.6524C18.0649 17.79 17.0443 18.65 15.5 18.65V17.35C16.4557 17.35 17.0851 16.86 17.5121 16.0476C17.9566 15.2021 18.15 14.0451 18.15 12.9C18.15 11.8411 17.8239 11.1808 17.3858 10.7792C16.9373 10.368 16.286 10.15 15.5 10.15V8.85001C16.514 8.85001 17.5127 9.13201 18.2642 9.82086Z" fill="black"/>
<path fill-rule="evenodd" clip-rule="evenodd" d="M13.2093 18.4186L13.7907 19.5814L13.7897 19.5818L13.7888 19.5823L13.7879 19.5827L13.7869 19.5832L11.7907 20.5814C11.2711 20.8412 10.8178 21.0353 10.4375 21.1937C10.3687 21.2224 10.3034 21.2495 10.2411 21.2753C9.94875 21.3964 9.72524 21.4891 9.54066 21.5814C9.31709 21.6932 9.23117 21.7671 9.19504 21.8123C9.17749 21.8342 9.14998 21.8712 9.14998 22V24.5583C9.39187 24.6418 9.75945 24.7529 10.266 24.8655C11.341 25.1044 13.0434 25.35 15.5 25.35V26.65C12.9565 26.65 11.159 26.3956 9.98397 26.1345C9.39653 26.004 8.9651 25.8718 8.67427 25.7692C8.52887 25.7179 8.4187 25.6739 8.34182 25.6413C8.30338 25.625 8.27328 25.6116 8.25127 25.6014L8.2243 25.5887L8.21531 25.5843L8.21193 25.5827L8.21051 25.582C8.21022 25.5818 8.20929 25.5814 8.49998 25L7.84998 25V22C7.84998 21.6288 7.94746 21.2907 8.17991 21.0002C8.39378 20.7329 8.68286 20.5568 8.95929 20.4186C9.18908 20.3037 9.46579 20.1892 9.75862 20.0679C9.81767 20.0435 9.87737 20.0188 9.93748 19.9937C10.3072 19.8397 10.7289 19.6588 11.2093 19.4186L13.2035 18.4215L13.2044 18.4211L13.2054 18.4206L13.2064 18.4201L13.2073 18.4196L13.2083 18.4191L13.2093 18.4186ZM8.49998 25L7.84998 25V25.4017L8.20929 25.5814L8.49998 25Z" fill="black"/>
<path fill-rule="evenodd" clip-rule="evenodd" d="M17.2093 19.5814L17.7907 18.4186L17.7916 18.4191L17.7926 18.4195L19.7907 19.4186C20.2711 19.6588 20.6928 19.8397 21.0625 19.9937C21.1226 20.0188 21.1823 20.0435 21.2414 20.0679C21.5342 20.1892 21.8109 20.3037 22.0407 20.4186C22.3171 20.5568 22.6062 20.7329 22.8201 21.0002C23.0525 21.2907 23.15 21.6288 23.15 22V24.9996L22.5 25C22.7907 25.5814 22.7904 25.5815 22.7901 25.5817L22.788 25.5827L22.7847 25.5843L22.7757 25.5887L22.7487 25.6014C22.7267 25.6115 22.6966 25.625 22.6582 25.6413C22.5813 25.6739 22.4711 25.7179 22.3257 25.7692C22.0349 25.8718 21.6034 26.004 21.016 26.1345C19.841 26.3956 18.0435 26.65 15.5 26.65V25.35C17.9565 25.35 19.659 25.1044 20.734 24.8655C21.2405 24.7529 21.6081 24.6418 21.85 24.5583V22C21.85 21.8712 21.8225 21.8342 21.8049 21.8123C21.7688 21.7671 21.6829 21.6932 21.4593 21.5814C21.2747 21.4891 21.0512 21.3964 20.7589 21.2753C20.6966 21.2495 20.6313 21.2224 20.5625 21.1937C20.1822 21.0353 19.7289 20.8412 19.2093 20.5814L17.2093 19.5814ZM22.5 25L22.7901 25.5817L23.15 25.4017V24.9996L22.5 25Z" fill="black"/>
<path fill-rule="evenodd" clip-rule="evenodd" d="M29.5404 16.4596L20.5404 7.45961L21.4596 6.54037L30.4596 15.5404L29.5404 16.4596Z" fill="black"/>
<path fill-rule="evenodd" clip-rule="evenodd" d="M20.5404 15.5404L29.5404 6.54037L30.4596 7.45961L21.4596 16.4596L20.5404 15.5404Z" fill="black"/>
</svg>
