<svg width="36" height="36" viewBox="0 0 36 36" fill="none" xmlns="http://www.w3.org/2000/svg">
<path d="M29 27.315L22.9189 21.382C24.3003 19.7289 24.9672 17.6158 24.7781 15.491C24.5891 13.3662 23.5589 11.3968 21.9062 10.0007C20.2535 8.60468 18.1084 7.8918 15.9259 8.01334C13.7434 8.13488 11.6953 9.08128 10.2161 10.6517C8.73698 12.2222 7.94319 14.2931 8.00317 16.4252C8.06315 18.5572 8.97218 20.5825 10.5374 22.0715C12.1026 23.5604 14.2008 24.3958 16.3869 24.4003C18.5729 24.4049 20.6748 23.5783 22.2465 22.0959L28.298 28L29 27.315ZM16.4126 23.4561C14.9458 23.4561 13.512 23.0318 12.2924 22.2367C11.0729 21.4417 10.1224 20.3117 9.56106 18.9896C8.99976 17.6675 8.8529 16.2127 9.13905 14.8091C9.4252 13.4056 10.1315 12.1164 11.1687 11.1045C12.2058 10.0926 13.5272 9.40345 14.9658 9.12427C16.4043 8.84509 17.8954 8.98838 19.2505 9.53601C20.6056 10.0836 21.7639 11.011 22.5787 12.2009C23.3936 13.3908 23.8286 14.7897 23.8286 16.2207C23.8286 18.1397 23.0472 19.98 21.6565 21.3369C20.2657 22.6938 18.3794 23.4561 16.4126 23.4561Z" fill="black"/>
<path fill-rule="evenodd" clip-rule="evenodd" d="M29.4295 27.3151L28.2979 28.4191L22.2395 22.5082C20.6369 23.9218 18.5508 24.7049 16.3862 24.7003C14.1244 24.6956 11.9521 23.8314 10.3306 22.2889C8.70878 20.7461 7.76548 18.646 7.70324 16.4336C7.641 14.2212 8.46482 12.0736 9.99769 10.4461C11.5303 8.8188 13.651 7.83957 15.9091 7.71381C18.1673 7.58806 20.3879 8.3255 22.0998 9.77157C23.8119 11.2178 24.8807 13.2596 25.0769 15.4644C25.2649 17.5776 24.6369 19.6786 23.3239 21.3581L29.4295 27.3151ZM22.9188 21.382C24.3002 19.729 24.9671 17.6159 24.7781 15.491C24.589 13.3662 23.5589 11.3968 21.9062 10.0007C20.2535 8.60469 18.1083 7.89181 15.9258 8.01335C13.7433 8.13489 11.6952 9.08129 10.2161 10.6518C8.73693 12.2222 7.94314 14.2932 8.00312 16.4252C8.0631 18.5572 8.97213 20.5826 10.5373 22.0715C12.1025 23.5604 14.2008 24.3958 16.3868 24.4004C18.5729 24.4049 20.6747 23.5783 22.2464 22.0959L28.2979 28L29 27.3151L22.9188 21.382ZM12.4562 21.9854C13.6267 22.7485 15.0035 23.1562 16.4125 23.1562C18.3022 23.1562 20.1129 22.4237 21.4469 21.1222C22.7806 19.821 23.5285 18.0577 23.5285 16.2207C23.5285 14.8507 23.1122 13.5108 22.3312 12.3704C21.5501 11.23 20.4392 10.34 19.1381 9.81417C17.8369 9.28832 16.4047 9.15062 15.0229 9.41879C13.6411 9.68695 12.3728 10.3487 11.3781 11.3192C10.3834 12.2896 9.70695 13.5251 9.43296 14.8691C9.15897 16.2129 9.29952 17.606 9.83716 18.8724C10.3748 20.1388 11.2859 21.2225 12.4562 21.9854ZM12.2924 22.2368C13.512 23.0318 14.9458 23.4562 16.4125 23.4562C18.3794 23.4562 20.2657 22.6938 21.6564 21.3369C23.0472 19.98 23.8285 18.1397 23.8285 16.2207C23.8285 14.7897 23.3936 13.3908 22.5787 12.2009C21.7638 11.011 20.6056 10.0837 19.2505 9.53602C17.8954 8.98839 16.4043 8.8451 14.9657 9.12428C13.5272 9.40346 12.2058 10.0926 11.1686 11.1045C10.1315 12.1164 9.42515 13.4056 9.139 14.8091C8.85285 16.2127 8.99972 17.6675 9.56102 18.9896C10.1223 20.3117 11.0728 21.4417 12.2924 22.2368Z" fill="black"/>
</svg>
