<svg width="36" height="36" viewBox="0 0 36 36" fill="none" xmlns="http://www.w3.org/2000/svg">
<path fill-rule="evenodd" clip-rule="evenodd" d="M9.49998 12.15C8.75896 12.15 8.14998 12.759 8.14998 13.5V22.3C8.14998 23.041 8.75896 23.65 9.49998 23.65H25.5C26.241 23.65 26.85 23.041 26.85 22.3V13.5C26.85 12.759 26.241 12.15 25.5 12.15H9.49998ZM6.84998 13.5C6.84998 12.041 8.04099 10.85 9.49998 10.85H25.5C26.959 10.85 28.15 12.041 28.15 13.5V22.3C28.15 23.759 26.959 24.95 25.5 24.95H9.49998C8.04099 24.95 6.84998 23.759 6.84998 22.3V13.5Z" fill="black"/>
<path fill-rule="evenodd" clip-rule="evenodd" d="M16.091 19.6052L7.69104 12.8052L8.509 11.7948L16.9061 18.5924C16.9065 18.5928 16.9068 18.5931 16.9072 18.5934C17.1478 18.7847 17.6218 18.8271 18.022 18.5706L26.5014 11.9866L27.2987 13.0134L18.7801 19.6278L18.7606 19.6408C17.9649 20.1713 16.8503 20.2126 16.094 19.6076L16.091 19.6052Z" fill="black"/>
<path fill-rule="evenodd" clip-rule="evenodd" d="M14.1858 17.7318L8.58577 24.0318L7.61414 23.1682L13.2141 16.8682L14.1858 17.7318Z" fill="black"/>
<path fill-rule="evenodd" clip-rule="evenodd" d="M21.5863 16.9687L27.0863 23.1687L26.1138 24.0314L20.6138 17.8314L21.5863 16.9687Z" fill="black"/>
</svg>
