<svg width="36" height="36" viewBox="0 0 36 36" fill="none" xmlns="http://www.w3.org/2000/svg">
<path fill-rule="evenodd" clip-rule="evenodd" d="M18 4.19821L27.4228 11.0036L27.4597 11.0404C27.4913 11.072 27.5252 11.1053 27.5608 11.1402C27.7694 11.3446 28.0357 11.6057 28.2387 11.9305C28.4966 12.3431 28.65 12.8396 28.65 13.5V22.3C28.65 23.759 27.459 24.95 26 24.95H10C8.54105 24.95 7.35004 23.759 7.35004 22.3V13.5C7.35004 13.467 7.34996 13.4342 7.34988 13.4016C7.34883 12.9526 7.34787 12.5435 7.54984 12.1598C7.65489 11.9602 7.79867 11.7924 7.95004 11.6327C8.05092 11.5262 8.17751 11.4007 8.32287 11.2567C8.39145 11.1887 8.46421 11.1166 8.54042 11.0404L8.57724 11.0036L18 4.19821ZM9.42268 11.9966C9.34683 12.0723 9.27892 12.1395 9.21754 12.2003C9.08347 12.3332 8.98051 12.4352 8.89378 12.5267C8.7639 12.6638 8.72019 12.7273 8.70023 12.7652C8.66686 12.8287 8.65004 12.8879 8.65004 13.5V22.3C8.65004 23.041 9.25902 23.65 10 23.65H26C26.7411 23.65 27.35 23.041 27.35 22.3V13.5C27.35 13.0604 27.2535 12.8069 27.1363 12.6195C27.0215 12.4358 26.8799 12.2958 26.6711 12.0893C26.6413 12.0599 26.6102 12.0291 26.5776 11.9967L18 5.8018L9.42268 11.9966Z" fill="black"/>
<path fill-rule="evenodd" clip-rule="evenodd" d="M16.591 19.6052L8.19104 12.8052L9.009 11.7948L17.4061 18.5924C17.4065 18.5928 17.4068 18.5931 17.4072 18.5934C17.6478 18.7847 18.1218 18.8271 18.522 18.5706L27.0014 11.9866L27.7987 13.0134L19.2801 19.6278L19.2606 19.6408C18.4649 20.1713 17.3503 20.2126 16.594 19.6076L16.591 19.6052Z" fill="black"/>
<path fill-rule="evenodd" clip-rule="evenodd" d="M14.6859 17.7318L9.08589 24.0318L8.11426 23.1682L13.7143 16.8682L14.6859 17.7318Z" fill="black"/>
<path fill-rule="evenodd" clip-rule="evenodd" d="M22.0863 16.9687L27.5863 23.1687L26.6138 24.0314L21.1138 17.8314L22.0863 16.9687Z" fill="black"/>
<path fill-rule="evenodd" clip-rule="evenodd" d="M11.85 11.35H24.15V15.5H22.85V12.65H13.15V15.5H11.85V11.35Z" fill="black"/>
</svg>
