<svg width="36" height="36" viewBox="0 0 36 36" fill="none" xmlns="http://www.w3.org/2000/svg">
<path fill-rule="evenodd" clip-rule="evenodd" d="M16 14.65C13.0453 14.65 10.65 17.0453 10.65 20C10.65 22.9547 13.0453 25.35 16 25.35C18.9547 25.35 21.35 22.9547 21.35 20C21.35 17.0453 18.9547 14.65 16 14.65ZM9.34998 20C9.34998 16.3273 12.3273 13.35 16 13.35C19.6727 13.35 22.65 16.3273 22.65 20C22.65 23.6727 19.6727 26.65 16 26.65C12.3273 26.65 9.34998 23.6727 9.34998 20Z" fill="black"/>
<path fill-rule="evenodd" clip-rule="evenodd" d="M25.481 10.4372L20.481 15.9372L19.519 15.0628L24.519 9.56277L25.481 10.4372Z" fill="black"/>
<path fill-rule="evenodd" clip-rule="evenodd" d="M25.8104 9.32114L26.1488 14.9611L24.8511 15.0389L24.5895 10.6789L19.5299 10.9125L19.47 9.61386L25.8104 9.32114Z" fill="black"/>
</svg>
