<svg width="36" height="36" viewBox="0 0 36 36" fill="none" xmlns="http://www.w3.org/2000/svg">
<path d="M8.94535 28V23.5824C8.32777 23.4272 7.78192 23.0709 7.39679 22.5715C7.01167 22.0721 6.81 21.4592 6.82469 20.8327V11.8173C6.80306 11.0929 7.07446 10.3895 7.5794 9.86141C8.08434 9.33331 8.78165 9.02355 9.5185 9H26.4838C27.2207 9.02355 27.918 9.33331 28.4229 9.86141C28.9279 10.3895 29.1993 11.0929 29.1776 11.8173V20.8327C29.1993 21.5572 28.9279 22.2606 28.4229 22.7887C27.918 23.3167 27.2207 23.6265 26.4838 23.6501H12.7282L8.94535 28ZM9.5185 10.1269C9.0856 10.1502 8.67973 10.3412 8.3897 10.658C8.09967 10.9748 7.94912 11.3916 7.97099 11.8173V20.8327C7.94912 21.2584 8.09967 21.6753 8.3897 21.9921C8.67973 22.3089 9.0856 22.4998 9.5185 22.5231H10.0917V24.9348L12.1665 22.5231H26.4838C26.9167 22.4998 27.3226 22.3089 27.6126 21.9921C27.9026 21.6753 28.0532 21.2584 28.0313 20.8327V11.8173C28.0532 11.3916 27.9026 10.9748 27.6126 10.658C27.3226 10.3412 26.9167 10.1502 26.4838 10.1269H9.5185Z" fill="black"/>
<path fill-rule="evenodd" clip-rule="evenodd" d="M9.51848 8.85001H26.4886C27.2643 8.8748 27.9989 9.20098 28.5313 9.75775C29.0632 10.3141 29.3498 11.0554 29.3276 11.8195V20.8305C29.3498 21.5947 29.0632 22.336 28.5313 22.8923C27.9989 23.4491 27.2643 23.7752 26.4886 23.8L26.4838 23.8001L12.7965 23.8001L8.79533 28.4011V23.697C8.19207 23.5201 7.66013 23.1586 7.27799 22.6631C6.8724 22.1372 6.65959 21.4915 6.67466 20.831V11.8195C6.65246 11.0554 6.93904 10.3141 7.47096 9.75775C8.00333 9.20098 8.73796 8.87487 9.51369 8.85008L9.51848 8.85001ZM9.52091 9.15001C8.8238 9.1729 8.16477 9.46623 7.68779 9.96508C7.21036 10.4644 6.95418 11.1289 6.9746 11.8128L6.97473 11.8173L6.97466 20.8363C6.96079 21.4282 7.15126 22.0076 7.51555 22.4799C7.87988 22.9523 8.39664 23.2899 8.98189 23.437L9.09533 23.4655V27.5989L12.6598 23.5001H26.4813C27.1785 23.4772 27.8375 23.1838 28.3145 22.685C28.7919 22.1857 29.0481 21.5212 29.0277 20.8372L29.0275 20.8327L29.0276 11.8128C29.048 11.1289 28.7919 10.4644 28.3145 9.96508C27.8375 9.46623 27.1785 9.1729 26.4814 9.15001H9.52091ZM9.51848 9.97693H26.4919C26.9636 10.0023 27.4064 10.2106 27.7232 10.5567C28.0392 10.9019 28.2041 11.3563 28.1813 11.8211V20.829C28.2041 21.2937 28.0392 21.7482 27.7232 22.0934C27.4064 22.4394 26.9636 22.6475 26.4918 22.6729L26.4838 22.6734L12.2353 22.6731L9.94163 25.3391V22.6731H9.5104C9.03869 22.6477 8.59586 22.4394 8.27904 22.0934C7.96302 21.7482 7.79814 21.2937 7.82097 20.829V11.8211C7.79814 11.3563 7.96302 10.9019 8.27904 10.5567C8.59586 10.2106 9.03871 10.0025 9.51042 9.97715L9.51848 9.97693ZM9.52261 10.2769C9.13 10.2991 8.76267 10.4727 8.50031 10.7593C8.23717 11.0467 8.10098 11.4244 8.12077 11.8096L8.12116 11.8173L8.12097 20.8405C8.10117 21.2257 8.23717 21.6034 8.50031 21.8908C8.76267 22.1774 9.13 22.351 9.52261 22.3731H10.2416V24.5304L12.0976 22.3731H26.4796C26.8723 22.351 27.2396 22.1774 27.5019 21.8908C27.7651 21.6034 27.9013 21.2257 27.8815 20.8404L27.8811 20.8327L27.8813 11.8096C27.9011 11.4244 27.7651 11.0467 27.5019 10.7593C27.2396 10.4727 26.8723 10.2991 26.4797 10.2769H9.52261Z" fill="black"/>
<path d="M25.1656 12.3808H10.8368V13.5077H25.1656V12.3808Z" fill="black"/>
<path fill-rule="evenodd" clip-rule="evenodd" d="M10.6868 12.2308H25.3156V13.6577H10.6868V12.2308ZM10.9868 12.5308V13.3577H25.0156V12.5308H10.9868Z" fill="black"/>
<path d="M21.5891 15.7616H10.8368V16.8885H21.5891V15.7616Z" fill="black"/>
<path fill-rule="evenodd" clip-rule="evenodd" d="M10.6868 15.6116H21.7391V17.0385H10.6868V15.6116ZM10.9868 15.9116V16.7385H21.4391V15.9116H10.9868Z" fill="black"/>
<path d="M23.1137 19.1424H10.8368V20.2693H23.1137V19.1424Z" fill="black"/>
<path fill-rule="evenodd" clip-rule="evenodd" d="M10.6868 18.9924H23.2637V20.4193H10.6868V18.9924ZM10.9868 19.2924V20.1193H22.9637V19.2924H10.9868Z" fill="black"/>
</svg>
