<svg width="36" height="36" viewBox="0 0 36 36" fill="none" xmlns="http://www.w3.org/2000/svg">
<path fill-rule="evenodd" clip-rule="evenodd" d="M11.5977 24.0354C11.2631 24.2629 11.15 24.5095 11.15 24.7C11.15 24.8905 11.2631 25.1371 11.5977 25.3646C11.9288 25.5898 12.4227 25.75 13 25.75C13.5773 25.75 14.0711 25.5898 14.4022 25.3646C14.7368 25.1371 14.85 24.8905 14.85 24.7C14.85 24.5095 14.7368 24.2629 14.4022 24.0354C14.0711 23.8103 13.5773 23.65 13 23.65C12.4227 23.65 11.9288 23.8103 11.5977 24.0354ZM10.8667 22.9604C11.4404 22.5703 12.1966 22.35 13 22.35C13.8034 22.35 14.5596 22.5703 15.1332 22.9604C15.7035 23.3482 16.15 23.9516 16.15 24.7C16.15 25.4484 15.7035 26.0518 15.1332 26.4396C14.5596 26.8297 13.8034 27.05 13 27.05C12.1966 27.05 11.4404 26.8297 10.8667 26.4396C10.2965 26.0518 9.84998 25.4484 9.84998 24.7C9.84998 23.9516 10.2965 23.3482 10.8667 22.9604Z" fill="black"/>
<path fill-rule="evenodd" clip-rule="evenodd" d="M20.0977 21.4354C19.7631 21.6629 19.65 21.9095 19.65 22.1C19.65 22.2905 19.7631 22.5371 20.0977 22.7646C20.4288 22.9898 20.9227 23.15 21.5 23.15C22.0773 23.15 22.5711 22.9898 22.9022 22.7646C23.2368 22.5371 23.35 22.2905 23.35 22.1C23.35 21.9095 23.2368 21.6629 22.9022 21.4354C22.5711 21.2102 22.0773 21.05 21.5 21.05C20.9227 21.05 20.4288 21.2102 20.0977 21.4354ZM19.3667 20.3604C19.9404 19.9703 20.6966 19.75 21.5 19.75C22.3034 19.75 23.0596 19.9703 23.6332 20.3604C24.2035 20.7482 24.65 21.3516 24.65 22.1C24.65 22.8484 24.2035 23.4518 23.6332 23.8396C23.0596 24.2297 22.3034 24.45 21.5 24.45C20.6966 24.45 19.9404 24.2297 19.3667 23.8396C18.7965 23.4518 18.35 22.8484 18.35 22.1C18.35 21.3516 18.7965 20.7482 19.3667 20.3604Z" fill="black"/>
<path fill-rule="evenodd" clip-rule="evenodd" d="M24.65 9.73569V22.1H23.35V11.6643L16.25 14.5381V24.7H14.95V13.6619L24.65 9.73569Z" fill="black"/>
<path fill-rule="evenodd" clip-rule="evenodd" d="M24.2377 13.905L15.8377 17.205L15.3623 15.995L23.7623 12.695L24.2377 13.905Z" fill="black"/>
</svg>
