<svg width="36" height="36" viewBox="0 0 36 36" fill="none" xmlns="http://www.w3.org/2000/svg">
<path fill-rule="evenodd" clip-rule="evenodd" d="M15.7142 10.7792C15.2761 11.1808 14.95 11.8411 14.95 12.9C14.95 14.0553 15.1213 15.2141 15.5439 16.0593C15.9474 16.8663 16.5496 17.35 17.5 17.35V18.65C15.9504 18.65 14.9526 17.7837 14.3811 16.6407C13.8288 15.5359 13.65 14.1447 13.65 12.9C13.65 11.5589 14.0739 10.5192 14.8358 9.82086C15.5873 9.13201 16.5861 8.85001 17.6 8.85001V10.15C16.814 10.15 16.1628 10.368 15.7142 10.7792Z" fill="black"/>
<path fill-rule="evenodd" clip-rule="evenodd" d="M20.2642 9.82086C21.0261 10.5192 21.45 11.5589 21.45 12.9C21.45 14.155 21.2434 15.5479 20.6629 16.6524C20.0649 17.79 19.0443 18.65 17.5 18.65V17.35C18.4557 17.35 19.0851 16.86 19.5121 16.0476C19.9566 15.2021 20.15 14.0451 20.15 12.9C20.15 11.8411 19.8239 11.1808 19.3858 10.7792C18.9373 10.368 18.286 10.15 17.5 10.15V8.85001C18.514 8.85001 19.5127 9.13201 20.2642 9.82086Z" fill="black"/>
<path fill-rule="evenodd" clip-rule="evenodd" d="M15.2093 18.4186L15.7907 19.5814L15.7897 19.5818L15.7888 19.5823L15.7879 19.5827L15.7869 19.5832L13.7907 20.5814C13.2711 20.8412 12.8178 21.0353 12.4375 21.1937C12.3687 21.2224 12.3034 21.2495 12.2411 21.2753C11.9488 21.3964 11.7252 21.4891 11.5407 21.5814C11.3171 21.6932 11.2312 21.7671 11.195 21.8123C11.1775 21.8342 11.15 21.8712 11.15 22V24.5583C11.3919 24.6418 11.7594 24.7529 12.266 24.8655C13.341 25.1044 15.0434 25.35 17.5 25.35V26.65C14.9565 26.65 13.159 26.3956 11.984 26.1345C11.3965 26.004 10.9651 25.8718 10.6743 25.7692C10.5289 25.7179 10.4187 25.6739 10.3418 25.6413C10.3034 25.625 10.2733 25.6116 10.2513 25.6014L10.2243 25.5887L10.2153 25.5843L10.2119 25.5827L10.2105 25.582C10.2102 25.5818 10.2093 25.5814 10.5 25L9.84998 25V22C9.84998 21.6288 9.94746 21.2907 10.1799 21.0002C10.3938 20.7329 10.6829 20.5568 10.9593 20.4186C11.1891 20.3037 11.4658 20.1892 11.7586 20.0679C11.8177 20.0435 11.8774 20.0188 11.9375 19.9937C12.3072 19.8397 12.7289 19.6588 13.2093 19.4186L15.2035 18.4215L15.2044 18.4211L15.2054 18.4206L15.2064 18.4201L15.2073 18.4196L15.2083 18.4191L15.2093 18.4186ZM10.5 25L9.84998 25V25.4017L10.2093 25.5814L10.5 25Z" fill="black"/>
<path fill-rule="evenodd" clip-rule="evenodd" d="M19.2093 19.5814L19.7907 18.4186L19.7916 18.4191L19.7926 18.4195L21.7907 19.4186C22.2711 19.6588 22.6928 19.8397 23.0625 19.9937C23.1226 20.0188 23.1823 20.0435 23.2414 20.0679C23.5342 20.1892 23.8109 20.3037 24.0407 20.4186C24.3171 20.5568 24.6062 20.7329 24.8201 21.0002C25.0525 21.2907 25.15 21.6288 25.15 22V24.9996L24.5 25C24.7907 25.5814 24.7904 25.5815 24.7901 25.5817L24.788 25.5827L24.7847 25.5843L24.7757 25.5887L24.7487 25.6014C24.7267 25.6115 24.6966 25.625 24.6582 25.6413C24.5813 25.6739 24.4711 25.7179 24.3257 25.7692C24.0349 25.8718 23.6034 26.004 23.016 26.1345C21.841 26.3956 20.0435 26.65 17.5 26.65V25.35C19.9565 25.35 21.659 25.1044 22.734 24.8655C23.2405 24.7529 23.6081 24.6418 23.85 24.5583V22C23.85 21.8712 23.8225 21.8342 23.8049 21.8123C23.7688 21.7671 23.6829 21.6932 23.4593 21.5814C23.2747 21.4891 23.0512 21.3964 22.7589 21.2753C22.6966 21.2495 22.6313 21.2224 22.5625 21.1937C22.1822 21.0353 21.7289 20.8412 21.2093 20.5814L19.2093 19.5814ZM24.5 25L24.7901 25.5817L25.15 25.4017V24.9996L24.5 25Z" fill="black"/>
</svg>
