<svg width="36" height="36" viewBox="0 0 36 36" fill="none" xmlns="http://www.w3.org/2000/svg">
<path d="M14.0254 19.183C14.5791 19.3378 15.0339 19.628 15.3898 20.0536C15.7458 20.4792 15.9237 20.9821 15.9237 21.5625C15.9237 22.2589 15.6864 22.8393 15.2119 23.3036C14.7373 23.7679 14.1638 24 13.4915 24C12.7797 24 12.1864 23.7679 11.7119 23.3036C11.2373 22.8393 11 22.2589 11 21.5625C11 20.8661 11.178 19.9762 11.5339 18.8929L13.8475 11H15.9237L14.0254 19.183ZM23.1017 19.183C23.6554 19.3378 24.1102 19.628 24.4661 20.0536C24.822 20.4792 25 20.9821 25 21.5625C25 22.2589 24.7627 22.8393 24.2881 23.3036C23.8136 23.7679 23.2401 24 22.5678 24C21.8559 24 21.2627 23.7679 20.7881 23.3036C20.3136 22.8393 20.0763 22.2589 20.0763 21.5625C20.0763 20.8661 20.2542 19.9762 20.6102 18.8929L22.9237 11H25L23.1017 19.183Z" fill="black"/>
</svg>
