<svg width="36" height="36" viewBox="0 0 36 36" fill="none" xmlns="http://www.w3.org/2000/svg">
<path fill-rule="evenodd" clip-rule="evenodd" d="M17.6 16.15C16.7992 16.15 16.15 16.7992 16.15 17.6C16.15 18.4008 16.7992 19.05 17.6 19.05C18.4008 19.05 19.05 18.4008 19.05 17.6C19.05 16.7992 18.4008 16.15 17.6 16.15ZM14.85 17.6C14.85 16.0812 16.0812 14.85 17.6 14.85C19.1188 14.85 20.35 16.0812 20.35 17.6C20.35 19.1188 19.1188 20.35 17.6 20.35C16.0812 20.35 14.85 19.1188 14.85 17.6Z" fill="black"/>
<path fill-rule="evenodd" clip-rule="evenodd" d="M17.572 8.85001C17.5814 8.85001 17.5907 8.85001 17.6 8.85001C17.6093 8.85001 17.6186 8.85001 17.628 8.85001C18.0109 8.84994 18.4793 8.84985 18.9576 8.96942L19.2928 9.05321L20.177 11.4848L22.4895 10.3285L22.8376 10.6186C23.4256 11.1086 24.0801 11.6539 24.6289 12.4222L24.8564 12.7407L23.7212 15.0109L23.7214 15.0166C23.7231 15.0608 23.73 15.1138 23.7435 15.2081L23.745 15.2188C23.7498 15.2522 23.7554 15.2917 23.7607 15.3351L25.744 15.9962L25.8306 16.3424C25.9501 16.8206 25.9501 17.2891 25.95 17.672V17.728C25.9501 18.1109 25.9501 18.5794 25.8306 19.0577L25.744 19.4038L23.4165 20.1797L24.5715 22.4896L24.2814 22.8376C23.7914 23.4256 23.2461 24.0802 22.4778 24.6289L22.1593 24.8564L19.8796 23.7166L19.1038 26.0441L18.7576 26.1306C18.2793 26.2502 17.8109 26.2501 17.428 26.25H17.372C16.9891 26.2501 16.5206 26.2502 16.0423 26.1306L15.6962 26.0441L14.9203 23.7166L12.6104 24.8715L12.2624 24.5814C11.6744 24.0915 11.0198 23.5461 10.4711 22.7778L10.2436 22.4594L11.415 20.1166C11.4107 20.1101 11.4056 20.1031 11.3995 20.0956C11.3952 20.0904 11.3907 20.0854 11.3861 20.0806L9.05593 19.3038L8.96939 18.9577C8.84982 18.4794 8.84991 18.0109 8.84998 17.628C8.84998 17.6186 8.84998 17.6093 8.84998 17.6C8.84998 17.5907 8.84998 17.5814 8.84998 17.572C8.84991 17.1891 8.84982 16.7207 8.96939 16.2424L9.05318 15.9072L11.4848 15.023L10.3436 12.7407L10.5711 12.4222C11.1117 11.6653 11.653 11.127 12.377 10.5065L12.7047 10.2256L15.0243 11.3854L15.9133 9.05168L16.2423 8.96942C16.7206 8.84985 17.1891 8.84994 17.572 8.85001ZM16.8765 10.175L16.2113 11.9213C16.0923 12.2617 15.8234 12.5132 15.525 12.6375C15.2228 12.7634 14.8316 12.7807 14.4803 12.5669L12.9 11.7767C12.4951 12.1412 12.1701 12.4758 11.8609 12.8683L12.6669 14.4803C12.8807 14.8316 12.8634 15.2228 12.7375 15.525C12.6125 15.825 12.3589 16.0953 12.0156 16.2133L10.1743 16.8828C10.1513 17.0976 10.15 17.329 10.15 17.6C10.15 17.8663 10.1513 18.0943 10.1731 18.3059L11.9881 18.9109L12.0605 18.9592C12.3122 19.127 12.5292 19.3803 12.6442 19.6792C12.7582 19.9756 12.7837 20.3637 12.5668 20.7198L11.7637 22.3261C12.0712 22.6953 12.4155 23.0088 12.7909 23.3278L14.3803 22.5331C14.7316 22.3193 15.1228 22.3366 15.425 22.4625C15.7279 22.5887 16.0005 22.8461 16.1166 23.1945L16.6941 24.9269C16.9057 24.9487 17.1337 24.95 17.4 24.95C17.6663 24.95 17.8942 24.9487 18.1059 24.9269L18.6833 23.1945C18.7995 22.8461 19.072 22.5887 19.375 22.4625C19.6772 22.3366 20.0684 22.3193 20.4197 22.5331L22.0261 23.3363C22.3953 23.0288 22.7087 22.6845 23.0278 22.3091L22.2331 20.7197C22.0193 20.3684 22.0366 19.9772 22.1625 19.675C22.2887 19.3721 22.546 19.0995 22.8944 18.9834L24.6269 18.4059C24.6487 18.1943 24.65 17.9663 24.65 17.7C24.65 17.4337 24.6487 17.2058 24.6269 16.9941L22.2778 16.2111L22.4786 15.6086C22.4789 15.6037 22.479 15.5955 22.4786 15.5834C22.4769 15.5392 22.47 15.4863 22.4565 15.3919L22.455 15.3812C22.4434 15.3007 22.4267 15.1838 22.4223 15.0647C22.4176 14.9372 22.4247 14.7705 22.4833 14.5945L22.4979 14.5506L23.3363 12.8739C23.0288 12.5047 22.6845 12.1913 22.309 11.8722L20.7197 12.6669C20.3684 12.8807 19.9772 12.8634 19.675 12.7375C19.375 12.6125 19.1047 12.3589 18.9867 12.0156L18.3172 10.1743C18.1024 10.1514 17.871 10.15 17.6 10.15C17.3263 10.15 17.0931 10.1514 16.8765 10.175Z" fill="black"/>
</svg>
