<svg width="36" height="36" viewBox="0 0 36 36" fill="none" xmlns="http://www.w3.org/2000/svg">
<path fill-rule="evenodd" clip-rule="evenodd" d="M17.6 10.15C13.4855 10.15 10.15 13.4855 10.15 17.6C10.15 21.7145 13.4855 25.05 17.6 25.05C21.7145 25.05 25.05 21.7145 25.05 17.6C25.05 13.4855 21.7145 10.15 17.6 10.15ZM8.84998 17.6C8.84998 12.7675 12.7675 8.85001 17.6 8.85001C22.4325 8.85001 26.35 12.7675 26.35 17.6C26.35 22.4325 22.4325 26.35 17.6 26.35C12.7675 26.35 8.84998 22.4325 8.84998 17.6Z" fill="black"/>
<path fill-rule="evenodd" clip-rule="evenodd" d="M14.6002 18.7505C14.9553 19.6046 16.1157 20.35 17.5402 20.35C18.8748 20.35 19.9908 19.6713 20.4218 18.8321L21.5782 19.426C20.8827 20.7803 19.2631 21.65 17.5402 21.65C15.7463 21.65 14.0102 20.7179 13.3998 19.2495L14.6002 18.7505Z" fill="black"/>
<path d="M20 16C20.5523 16 21 15.5523 21 15C21 14.4477 20.5523 14 20 14C19.4477 14 19 14.4477 19 15C19 15.5523 19.4477 16 20 16Z" fill="black"/>
<path d="M15 16C15.5523 16 16 15.5523 16 15C16 14.4477 15.5523 14 15 14C14.4477 14 14 14.4477 14 15C14 15.5523 14.4477 16 15 16Z" fill="black"/>
</svg>
