<svg width="36" height="36" viewBox="0 0 36 36" fill="none" xmlns="http://www.w3.org/2000/svg">
<path fill-rule="evenodd" clip-rule="evenodd" d="M10.5 10.65C9.75896 10.65 9.14998 11.259 9.14998 12V24C9.14998 24.741 9.75896 25.35 10.5 25.35H26.5C27.241 25.35 27.85 24.741 27.85 24V12C27.85 11.259 27.241 10.65 26.5 10.65H10.5ZM7.84998 12C7.84998 10.541 9.04099 9.35001 10.5 9.35001H26.5C27.959 9.35001 29.15 10.541 29.15 12V24C29.15 25.459 27.959 26.65 26.5 26.65H10.5C9.04099 26.65 7.84998 25.459 7.84998 24V12Z" fill="black"/>
<path fill-rule="evenodd" clip-rule="evenodd" d="M15.85 13.3683L23.79 18L15.85 22.6317V13.3683ZM17.15 15.6317V20.3683L21.21 18L17.15 15.6317Z" fill="black"/>
</svg>
