<svg width="36" height="36" viewBox="0 0 36 36" fill="none" xmlns="http://www.w3.org/2000/svg">
<path fill-rule="evenodd" clip-rule="evenodd" d="M10.3656 14.7258C12.2851 13.3182 14.997 11.85 18 11.85C21.0043 11.85 23.6919 13.3192 25.5878 14.7283C26.5433 15.4385 27.3168 16.1476 27.852 16.6796C28.12 16.946 28.3291 17.1688 28.4724 17.3264C28.5441 17.4053 28.5993 17.4679 28.6373 17.5115C28.6563 17.5333 28.671 17.5504 28.6812 17.5625L28.6933 17.5767L28.6968 17.5808L28.6979 17.5822C28.6981 17.5823 28.6986 17.583 28.2 18C28.7031 18.4116 28.703 18.4118 28.7028 18.412L28.7013 18.4138L28.6978 18.4181L28.6859 18.4324C28.6758 18.4445 28.6614 18.4616 28.6427 18.4835C28.6053 18.5273 28.551 18.5901 28.4805 18.6691C28.3396 18.827 28.1338 19.0502 27.8695 19.3169C27.3417 19.8496 26.577 20.5595 25.627 21.2704C23.7404 22.6821 21.053 24.15 18 24.15C14.9483 24.15 12.2366 22.6831 10.3265 21.2729C9.36434 20.5626 8.58737 19.8533 8.0503 19.3211C7.78143 19.0546 7.57177 18.8317 7.42816 18.6739C7.35634 18.595 7.30097 18.5324 7.26291 18.4887C7.24388 18.4668 7.22917 18.4497 7.21889 18.4376L7.2068 18.4234L7.20326 18.4192L7.20213 18.4179C7.20197 18.4177 7.20142 18.417 7.70002 18C7.20587 17.5777 7.20601 17.5776 7.20617 17.5774L7.20771 17.5756L7.21127 17.5715L7.22352 17.5573C7.23396 17.5453 7.24891 17.5283 7.26826 17.5065C7.30696 17.463 7.36328 17.4005 7.43629 17.3217C7.58227 17.1643 7.79526 16.9416 8.06782 16.6755C8.61224 16.144 9.39803 15.4354 10.3656 14.7258ZM7.70002 18L7.20617 17.5774L6.84888 17.9955L7.20142 18.417L7.70002 18ZM8.58018 18.004C8.68756 18.1174 8.81643 18.2501 8.96537 18.3977C9.46893 18.8967 10.1982 19.5624 11.0986 20.2271C12.9134 21.5669 15.3518 22.85 18 22.85C20.647 22.85 23.0596 21.5679 24.8481 20.2296C25.7356 19.5655 26.4521 18.9004 26.9461 18.4019C27.0942 18.2524 27.222 18.1183 27.328 18.004C27.2192 17.8887 27.0878 17.753 26.9355 17.6016C26.4333 17.1024 25.7068 16.4365 24.8123 15.7717C23.0082 14.4308 20.5958 13.15 18 13.15C15.403 13.15 12.9649 14.4318 11.1344 15.7742C10.227 16.4396 9.4878 17.106 8.97598 17.6057C8.82282 17.7553 8.69036 17.8895 8.58018 18.004ZM28.2 18L28.7028 18.412L29.0436 17.9955L28.6986 17.583L28.2 18Z" fill="black"/>
<path fill-rule="evenodd" clip-rule="evenodd" d="M17.9 15.15C16.326 15.15 15.05 16.426 15.05 18C15.05 19.574 16.326 20.85 17.9 20.85C19.474 20.85 20.75 19.574 20.75 18C20.75 16.426 19.474 15.15 17.9 15.15ZM13.75 18C13.75 15.708 15.608 13.85 17.9 13.85C20.192 13.85 22.05 15.708 22.05 18C22.05 20.292 20.192 22.15 17.9 22.15C15.608 22.15 13.75 20.292 13.75 18Z" fill="black"/>
</svg>
