<svg width="154" height="46" viewBox="0 0 154 46" fill="none" xmlns="http://www.w3.org/2000/svg">
<path d="M55.9104 19.4726C54.8059 18.8678 53.8933 17.9648 53.2768 16.8664C52.6322 15.7102 52.3034 14.4045 52.3236 13.0808C52.3025 11.7636 52.6314 10.4645 53.2768 9.31629C53.8956 8.22148 54.8077 7.32129 55.9104 6.71718C57.0821 6.08953 58.3943 5.77109 59.7232 5.79195C60.8691 5.76762 62.005 6.00938 63.0417 6.49823C63.9962 6.96913 64.7952 7.70463 65.3435 8.61707L63.9314 9.5988C63.4837 8.91966 62.8619 8.37327 62.1309 8.01674C61.3911 7.66073 60.5794 7.4795 59.7585 7.48703C58.7716 7.47157 57.7978 7.71508 56.9342 8.19331C56.1121 8.65201 55.4403 9.33881 54.9996 10.1709C54.5217 11.0705 54.2789 12.0763 54.2935 13.0949C54.2737 14.1186 54.5168 15.1302 54.9996 16.033C55.4408 16.8611 56.1129 17.5432 56.9342 17.9965C57.7978 18.4747 58.7716 18.7182 59.7585 18.7027C60.5806 18.7061 61.3923 18.52 62.1309 18.1589C62.8673 17.8106 63.4911 17.2625 63.9314 16.5768L65.3435 17.5656C64.7943 18.4824 63.9893 19.2189 63.0276 19.6845C61.9946 20.1695 60.8642 20.4111 59.7232 20.3908C58.3947 20.416 57.0819 20.0999 55.9104 19.4726V19.4726Z" fill="white"/>
<path d="M71.9381 6.52649C72.9779 6.01718 74.128 5.77447 75.2849 5.82021V7.70598H74.8189C74.1636 7.67448 73.5092 7.78432 72.9001 8.02804C72.2909 8.27176 71.7413 8.64367 71.2885 9.11854C70.3787 10.209 69.9214 11.6068 70.0106 13.0243V20.2636H68.0477V5.8979H69.8976V8.72302C70.3187 7.78691 71.0356 7.01514 71.9381 6.52649V6.52649Z" fill="white"/>
<path d="M90.0558 13.6811H78.0526C78.0837 14.3702 78.2528 15.0459 78.5499 15.6683C78.8471 16.2908 79.2662 16.8471 79.7825 17.3043C80.8733 18.2424 82.2777 18.7342 83.7153 18.6816C84.5584 18.6895 85.3943 18.5261 86.1724 18.2013C86.917 17.8851 87.579 17.4018 88.107 16.7887L89.2014 18.0459C88.5508 18.8092 87.7245 19.403 86.7937 19.7763C85.7915 20.1823 84.7189 20.3864 83.6376 20.3766C82.2719 20.4025 80.9224 20.0766 79.7189 19.4302C78.6062 18.8266 77.6843 17.9239 77.0571 16.8241C76.4108 15.6736 76.0818 14.372 76.1039 13.0525C76.0824 11.7406 76.3959 10.4449 77.0147 9.28805C77.5963 8.20593 78.4664 7.30626 79.5283 6.68894C80.6224 6.06551 81.8632 5.74606 83.1222 5.76372C84.3746 5.74501 85.6089 6.06465 86.6949 6.68894C87.7466 7.30388 88.6069 8.19876 89.1802 9.27393C89.7965 10.4366 90.1075 11.7368 90.084 13.0525L90.0558 13.6811ZM79.6342 8.77953C78.6868 9.68893 78.117 10.9222 78.0385 12.2332H88.2553C88.1769 10.9207 87.6042 9.68656 86.6525 8.77953C85.6868 7.92889 84.4442 7.45962 83.1575 7.45962C81.8707 7.45962 80.6281 7.92889 79.6625 8.77953H79.6342Z" fill="white"/>
<path d="M102.97 7.19747C103.497 7.74869 103.902 8.40438 104.16 9.12216C104.418 9.83994 104.522 10.6038 104.467 11.3645V20.2636H102.61V18.0247C102.159 18.7879 101.49 19.3982 100.689 19.7763C99.7459 20.2152 98.7142 20.4303 97.6742 20.4049C96.3039 20.4755 94.9514 20.0687 93.8473 19.2537C93.3908 18.8949 93.0251 18.4336 92.7798 17.9073C92.5345 17.3809 92.4164 16.8042 92.4352 16.2237C92.4168 15.663 92.5269 15.1054 92.7569 14.5937C92.987 14.0821 93.331 13.6298 93.7626 13.2715C94.6475 12.5275 96.0597 12.1555 97.999 12.1555H102.56V11.301C102.596 10.7834 102.523 10.2641 102.344 9.77715C102.165 9.2902 101.885 8.84669 101.522 8.47583C100.676 7.77212 99.5902 7.42512 98.4933 7.50823C97.601 7.50494 96.7149 7.65546 95.8737 7.95319C95.0737 8.22218 94.3312 8.63905 93.6849 9.18211L92.8094 7.73424C93.5865 7.09957 94.4782 6.62004 95.436 6.32168C96.4759 5.98496 97.5626 5.81569 98.6556 5.82022C100.217 5.70642 101.763 6.19977 102.97 7.19747ZM100.781 18.1236C101.581 17.6027 102.194 16.8408 102.532 15.9483V13.6034H98.0272C95.5701 13.6034 94.3416 14.458 94.3416 16.1672C94.3295 16.5525 94.4121 16.9348 94.5819 17.2808C94.7518 17.6268 95.0038 17.9259 95.316 18.1519C96.1079 18.671 97.047 18.9189 97.9919 18.8581C98.973 18.8882 99.9418 18.633 100.781 18.1236Z" fill="white"/>
<path d="M116.208 19.3949C115.816 19.7359 115.357 19.991 114.86 20.1436C114.316 20.3166 113.75 20.4048 113.179 20.4049C112.614 20.4401 112.046 20.3614 111.512 20.1733C110.977 19.9853 110.485 19.6918 110.066 19.3102C109.688 18.8984 109.396 18.4149 109.208 17.8884C109.02 17.3619 108.94 16.8031 108.971 16.2449V7.53648H106.408V5.89791H108.971V2.76202H110.913V5.89791H115.283V7.53648H110.913V16.1107C110.86 16.8222 111.091 17.5256 111.555 18.0671C111.796 18.3073 112.085 18.4942 112.402 18.6159C112.719 18.7376 113.059 18.7912 113.398 18.7734C113.792 18.7749 114.184 18.7104 114.556 18.5827C114.914 18.4649 115.245 18.2777 115.531 18.0318L116.208 19.3949Z" fill="white"/>
<path d="M119.703 2.35237C119.443 2.08927 119.296 1.73415 119.294 1.36358C119.295 1.18535 119.332 1.00916 119.402 0.845402C119.473 0.681644 119.575 0.533633 119.703 0.410101C119.839 0.275753 120 0.170197 120.177 0.0997944C120.354 0.0293921 120.544 -0.00439884 120.734 0.000458333C120.92 -0.00341375 121.105 0.0295355 121.279 0.0974121C121.452 0.165289 121.61 0.266754 121.744 0.395975C121.873 0.515356 121.976 0.660752 122.046 0.822633C122.115 0.984514 122.149 1.15923 122.146 1.33533C122.146 1.70996 121.998 2.06925 121.733 2.33416C121.468 2.59906 121.109 2.74789 120.734 2.74789C120.545 2.7546 120.356 2.72304 120.179 2.65508C120.002 2.58713 119.84 2.48418 119.703 2.35237V2.35237ZM119.703 5.88377H121.645V20.2636H119.703V5.88377Z" fill="white"/>
<path d="M139.141 5.89789L132.787 20.2636H130.76L124.406 5.89789H126.425L131.805 18.1377L137.242 5.89789H139.141Z" fill="white"/>
<path d="M153.969 13.6811H141.966C141.993 14.3695 142.159 15.0453 142.454 15.6679C142.749 16.2905 143.166 16.8471 143.681 17.3043C144.773 18.2418 146.177 18.7335 147.614 18.6816C148.457 18.6909 149.294 18.5274 150.071 18.2013C150.817 17.8834 151.481 17.4004 152.013 16.7887L153.1 18.0459C152.454 18.8074 151.632 19.401 150.707 19.7763C149.707 20.183 148.637 20.3871 147.558 20.3766C146.192 20.4025 144.843 20.0766 143.639 19.4302C142.525 18.8284 141.603 17.9253 140.977 16.824C140.326 15.6754 139.994 14.373 140.017 13.0525C139.995 11.7396 140.311 10.4431 140.935 9.28803C141.514 8.20436 142.385 7.30417 143.448 6.68892C144.545 6.08235 145.778 5.76416 147.032 5.76416C148.285 5.76416 149.518 6.08235 150.615 6.68892C151.663 7.30634 152.52 8.20076 153.093 9.27391C153.713 10.4352 154.024 11.7363 153.997 13.0525L153.969 13.6811ZM143.554 8.77951C142.605 9.68725 142.034 10.9215 141.959 12.2332H152.14C152.064 10.9215 151.494 9.68725 150.544 8.77951C149.579 7.92887 148.336 7.4596 147.049 7.4596C145.763 7.4596 144.52 7.92887 143.554 8.77951V8.77951Z" fill="white"/>
<path d="M54.2724 40.3361C53.3632 40.0821 52.5136 39.65 51.7729 39.0648L52.6484 37.5392C53.3299 38.0557 54.0971 38.4478 54.9149 38.6975C55.8258 38.9993 56.7795 39.152 57.7391 39.1495C58.7471 39.2198 59.7546 39.007 60.6481 38.5351C60.9447 38.3548 61.1879 38.0989 61.353 37.7936C61.518 37.4883 61.5988 37.1445 61.5872 36.7976C61.5989 36.5651 61.5587 36.333 61.4696 36.118C61.3804 35.903 61.2445 35.7105 61.0718 35.5546C60.6893 35.2283 60.2415 34.9875 59.7585 34.8483C59.0616 34.6574 58.3544 34.5065 57.6403 34.3963C56.6858 34.2164 55.7428 33.9806 54.816 33.69C54.12 33.4699 53.4942 33.0704 53.0014 32.5317C52.4702 31.9002 52.2022 31.0883 52.253 30.2645C52.2432 29.6869 52.3751 29.1157 52.6373 28.601C52.8995 28.0863 53.284 27.6438 53.7569 27.3123C54.9838 26.4813 56.4508 26.079 57.9298 26.1681C58.8833 26.1654 59.8329 26.2889 60.754 26.5354C61.5683 26.7464 62.3431 27.0875 63.0488 27.5454L62.2085 29.1062C60.9576 28.2678 59.4774 27.8384 57.9721 27.8773C56.986 27.8058 56.0013 28.0348 55.1479 28.5341C54.8561 28.7149 54.6158 28.9677 54.4501 29.2683C54.2844 29.5689 54.1988 29.9071 54.2018 30.2504C54.1928 30.4949 54.2361 30.7386 54.3286 30.9651C54.4211 31.1916 54.5608 31.3958 54.7384 31.5641C55.1189 31.897 55.5706 32.1386 56.0587 32.2704C56.7791 32.4698 57.5098 32.6301 58.2475 32.7506C59.177 32.9177 60.0963 33.137 61.0012 33.4075C61.7047 33.6207 62.3386 34.0181 62.8369 34.5587C63.3385 35.1659 63.5908 35.9408 63.543 36.727C63.5569 37.3171 63.4203 37.9011 63.1461 38.4238C62.8718 38.9466 62.469 39.3908 61.9755 39.7145C60.6709 40.5211 59.1504 40.9081 57.6191 40.8234C56.4851 40.8348 55.3561 40.6704 54.2724 40.3361V40.3361Z" fill="white"/>
<path d="M77.6643 27.1428C78.7465 27.7462 79.6372 28.642 80.2344 29.7278C80.8637 30.8914 81.1822 32.1977 81.1593 33.5205C81.1848 34.8548 80.8663 36.1732 80.2344 37.3485C79.6383 38.4334 78.7472 39.3272 77.6643 39.9265C76.5414 40.5475 75.2757 40.8641 73.9928 40.8446C72.9012 40.8694 71.8202 40.6269 70.8437 40.1383C69.8979 39.6522 69.1004 38.9203 68.5349 38.0195V46.0005H66.572V26.3376H68.429V29.1628C68.9887 28.2411 69.7862 27.4872 70.7378 26.9804C71.7357 26.4614 72.8471 26.1992 73.9716 26.2176C75.2622 26.1976 76.5355 26.5166 77.6643 27.1428V27.1428ZM76.6052 38.4433C77.4218 37.9821 78.0885 37.2956 78.5257 36.4657C78.9852 35.562 79.2247 34.5626 79.2247 33.5488C79.2247 32.5349 78.9852 31.5355 78.5257 30.6318C78.0804 29.8079 77.4157 29.1234 76.6052 28.6542C75.767 28.1892 74.8242 27.9452 73.8657 27.9452C72.9072 27.9452 71.9644 28.1892 71.1261 28.6542C70.3197 29.124 69.6597 29.8086 69.2198 30.6318C68.7603 31.5355 68.5208 32.5349 68.5208 33.5488C68.5208 34.5626 68.7603 35.562 69.2198 36.4657C69.6518 37.2946 70.3137 37.9812 71.1261 38.4433C71.9664 38.902 72.9084 39.1423 73.8657 39.1423C74.823 39.1423 75.7649 38.902 76.6052 38.4433V38.4433Z" fill="white"/>
<path d="M93.2472 27.6372C94.2498 28.5765 94.7511 29.9608 94.7511 31.8042V40.7034H92.8942V38.4645C92.4394 39.2265 91.7685 39.8362 90.9666 40.216C90.0237 40.6556 88.9917 40.8708 87.9517 40.8446C86.5831 40.9189 85.2317 40.5116 84.1319 39.6934C83.6956 39.3299 83.3429 38.8766 83.0977 38.3643C82.8526 37.852 82.7209 37.2928 82.7115 36.725C82.7021 36.1571 82.8153 35.5939 83.0434 35.0738C83.2714 34.5537 83.609 34.0889 84.033 33.7112C84.918 32.972 86.3301 32.6 88.2694 32.5953H92.8236V31.7195C92.8598 31.202 92.7861 30.6826 92.6072 30.1957C92.4283 29.7087 92.1483 29.2652 91.7856 28.8944C90.9399 28.1907 89.8536 27.8437 88.7566 27.9268C87.8644 27.9235 86.9783 28.074 86.1371 28.3717C85.3467 28.6498 84.6143 29.0712 83.9766 29.6148L83.1081 28.2022C83.8835 27.5691 84.7726 27.0896 85.7276 26.7897C86.7675 26.4529 87.8543 26.2837 88.9473 26.2882C90.5007 26.168 92.0406 26.6511 93.2472 27.6372V27.6372ZM91.0796 38.5633C91.8772 38.042 92.4881 37.2801 92.8236 36.388V34.0431H88.3189C85.8617 34.0431 84.6332 34.8977 84.6332 36.6069C84.6189 36.9911 84.699 37.3728 84.8664 37.7188C85.0338 38.0648 85.2834 38.3645 85.5934 38.5916C86.385 39.1117 87.3244 39.3597 88.2694 39.2979C89.2575 39.3304 90.2337 39.0752 91.0796 38.5633V38.5633Z" fill="white"/>
<path d="M100.583 39.9123C99.4765 39.308 98.5615 38.405 97.9425 37.3062C97.2979 36.1499 96.9691 34.8442 96.9893 33.5205C96.9682 32.2034 97.2971 30.9043 97.9425 29.756C98.5641 28.661 99.4786 27.7609 100.583 27.1569C101.752 26.5284 103.062 26.2099 104.389 26.2317C105.535 26.2074 106.671 26.4491 107.707 26.938C108.664 27.4088 109.465 28.1441 110.016 29.0568L108.604 30.0386C108.158 29.3523 107.533 28.8006 106.797 28.4424C106.057 28.0864 105.245 27.9051 104.424 27.9127C103.437 27.8972 102.464 28.1407 101.6 28.6189C100.774 29.0778 100.099 29.7674 99.6583 30.6036C99.2035 31.5124 98.9667 32.5148 98.9667 33.5311C98.9667 34.5475 99.2035 35.5498 99.6583 36.4586C100.102 37.2872 100.776 37.9693 101.6 38.4221C102.463 38.9028 103.437 39.1465 104.424 39.1284C105.244 39.1371 106.055 38.9609 106.797 38.6128C107.535 38.2618 108.161 37.7114 108.604 37.0237L110.016 38.0054C109.466 38.9238 108.658 39.6604 107.693 40.1242C106.662 40.6139 105.53 40.8558 104.389 40.8305C103.062 40.8577 101.751 40.5414 100.583 39.9123V39.9123Z" fill="white"/>
<path d="M126.065 34.1208H114.062C114.091 34.8103 114.259 35.4867 114.557 36.1094C114.854 36.7321 115.274 37.2881 115.792 37.744C116.878 38.6942 118.283 39.1988 119.725 39.1566C120.568 39.1694 121.405 39.0058 122.182 38.6763C122.928 38.3602 123.593 37.8769 124.123 37.2638L125.218 38.521C124.565 39.2869 123.737 39.8831 122.803 40.2584C121.803 40.6651 120.733 40.8692 119.654 40.8587C118.288 40.8846 116.939 40.5587 115.735 39.9123C114.621 39.3105 113.699 38.4074 113.073 37.3062C112.422 36.1576 112.09 34.8551 112.113 33.5346C112.091 32.2218 112.407 30.9253 113.031 29.7701C113.611 28.6865 114.481 27.7863 115.545 27.171C116.642 26.5645 117.875 26.2463 119.128 26.2463C120.381 26.2463 121.614 26.5645 122.711 27.171C123.76 27.79 124.619 28.6839 125.197 29.756C125.811 30.9193 126.119 32.2195 126.093 33.5346L126.065 34.1208ZM115.651 29.2192C114.701 30.127 114.131 31.3612 114.055 32.673H124.265C124.189 31.3612 123.619 30.127 122.669 29.2192C121.703 28.3686 120.461 27.8993 119.174 27.8993C117.887 27.8993 116.645 28.3686 115.679 29.2192H115.651Z" fill="white"/>
<path d="M22.2382 36.1478L8.5546 22.4531L22.2382 8.76537L35.9217 22.4531L43.2436 15.136C41.5144 10.1719 38.0838 5.98065 33.5599 3.30534C29.0361 0.630041 23.7114 -0.356474 18.5299 0.5207C13.3483 1.39787 8.64459 4.08207 5.25274 8.09739C1.86089 12.1127 0 17.1998 0 22.4566C0 27.7134 1.86089 32.8005 5.25274 36.8158C8.64459 40.8311 13.3483 43.5153 18.5299 44.3925C23.7114 45.2697 29.0361 44.2832 33.5599 41.6079C38.0838 38.9325 41.5144 34.7413 43.2436 29.7772L35.9217 22.4531L22.2382 36.1478Z" fill="url(#paint0_linear)"/>
<defs>
<linearGradient id="paint0_linear" x1="-0.723103" y1="5.27634" x2="33.9099" y2="31.1797" gradientUnits="userSpaceOnUse">
<stop stop-color="#7733E2"/>
<stop offset="0.62" stop-color="#513DD7"/>
<stop offset="1" stop-color="#3E42D1"/>
</linearGradient>
</defs>
</svg>
